<svg width="370" height="50" viewBox="0 0 370 50" fill="none" xmlns="http://www.w3.org/2000/svg">
<g clip-path="url(#clip0_125_2877)">
<path d="M25 0C11.193 0 0 11.193 0 25C0 38.807 11.193 50 25 50C38.807 50 50 38.807 50 25C50 11.193 38.807 0 25 0ZM39.0406 24.2188C38.9328 19.8578 37.9359 15.7203 36.218 11.9789C38.2898 11.1805 40.2563 10.1688 42.0891 8.96797C45.8578 12.9836 48.225 18.3242 48.4188 24.2188H39.0406ZM26.0414 48.4109C25.9555 48.4148 25.868 48.4148 25.7812 48.418V39.0898C28.3781 39.1578 30.8961 39.5438 33.2852 40.2383C31.3937 43.3914 28.9289 46.1594 26.0414 48.4109ZM34.8039 40.7352C36.5875 41.3609 38.2898 42.1547 39.9 43.093C36.782 45.6633 32.9867 47.4391 28.8234 48.1227C31.1734 45.9852 33.1906 43.4937 34.8039 40.7352ZM16.7141 40.2383C19.1039 39.543 21.6219 39.1578 24.2188 39.0898V48.4172C24.132 48.4141 24.0445 48.4141 23.9586 48.4102C21.0703 46.1594 18.6062 43.3914 16.7141 40.2383ZM21.1758 48.1219C17.0125 47.4391 13.2172 45.6633 10.0992 43.0922C11.7102 42.1547 13.4117 41.3602 15.1953 40.7352C16.8086 43.4937 18.8266 45.9852 21.1758 48.1219ZM1.58203 24.2188C1.77578 18.3242 4.14219 12.9836 7.91172 8.96797C9.74453 10.168 11.7102 11.1797 13.7828 11.9789C12.0641 15.7203 11.0672 19.8578 10.9594 24.2188H1.58203ZM34.0391 11.0906C31.4258 11.9258 28.6531 12.3953 25.7812 12.4703V1.58203C25.868 1.58516 25.9555 1.58516 26.0414 1.58906C29.3289 4.15156 32.068 7.38516 34.0391 11.0906ZM28.8242 1.87813C33.468 2.64063 37.6508 4.76562 40.95 7.83281C39.25 8.91953 37.4375 9.84062 35.525 10.5664C33.8109 7.28594 31.5383 4.34531 28.8242 1.87813ZM24.2188 1.58203V12.4703C21.3461 12.3953 18.5734 11.9266 15.9609 11.0906C17.932 7.38516 20.6711 4.15156 23.9586 1.58906C24.0445 1.58516 24.132 1.58516 24.2188 1.58203ZM14.4758 10.5664C12.5633 9.84062 10.75 8.91953 9.05078 7.83281C12.35 4.76562 16.532 2.64063 21.1766 1.87813C18.4617 4.34531 16.1891 7.28594 14.4758 10.5664ZM15.2594 12.507C18.0891 13.4359 21.0969 13.9703 24.2188 14.0477V24.2188H12.5242C12.6328 20.0422 13.5961 16.0813 15.2594 12.507ZM24.2188 25.7812V37.5281C21.3406 37.6 18.5586 38.0477 15.9258 38.8477C13.8531 34.9312 12.6469 30.4914 12.5242 25.7812H24.2188ZM25.7812 37.5281V25.7812H37.4758C37.3539 30.4914 36.1469 34.9313 34.0742 38.8484C31.4414 38.0477 28.6594 37.6 25.7812 37.5281ZM25.7812 24.2188V14.0469C28.9031 13.9695 31.9109 13.4359 34.7406 12.5062C36.4039 16.0805 37.3672 20.0422 37.4758 24.218L25.7812 24.2188ZM1.58203 25.7812H10.9594C11.0797 30.6664 12.3188 35.2703 14.4336 39.3508C12.4836 40.0531 10.6281 40.9477 8.87969 42.0039C4.55234 37.9008 1.79219 32.1656 1.58203 25.7812ZM41.1203 42.0047C39.3719 40.9477 37.5164 40.0539 35.5664 39.3516C37.6813 35.2703 38.9203 30.6672 39.0406 25.782H48.418C48.2078 32.1656 45.4477 37.9008 41.1203 42.0047Z" fill="#424242"/>
</g>
<path d="M125.312 32.8125H120.625V27.4578C120.625 26.1656 119.573 25.1141 118.281 25.1141H116.97C116.831 24.8172 116.605 24.5531 116.267 24.3844L107.095 19.7984C106.677 19.5891 106.231 19.4703 105.78 19.3937V17.1875H111.25C113.839 17.1875 115.938 15.0891 115.938 12.5V10.9375C115.938 8.34844 113.839 6.25 111.25 6.25H98.75C96.1609 6.25 94.0625 8.34844 94.0625 10.9375V12.5C94.0625 15.0891 96.1609 17.1875 98.75 17.1875H104.219V19.3937C103.767 19.4703 103.323 19.5891 102.903 19.7984L93.7313 24.3844C93.3938 24.5531 93.1688 24.8172 93.0281 25.1141H91.7188C90.4266 25.1141 89.375 26.1656 89.375 27.4578V32.8125H84.6875C82.0984 32.8125 80 34.9109 80 37.5V39.0625C80 41.6516 82.0984 43.75 84.6875 43.75H95.625C98.2141 43.75 100.312 41.6516 100.312 39.0625V37.5C100.312 34.9109 98.2141 32.8125 95.625 32.8125H90.9375V27.4578C90.9375 27.0266 91.2891 26.6766 91.7188 26.6766H93.1625C93.3031 26.8766 93.4859 27.0563 93.7328 27.1797L102.905 31.7656C103.564 32.0953 104.283 32.2609 105.002 32.2609C105.72 32.2609 106.438 32.0953 107.098 31.7656L116.27 27.1797C116.517 27.0563 116.7 26.8781 116.841 26.6766H118.281C118.711 26.6766 119.062 27.0266 119.062 27.4578V32.8125H114.375C111.786 32.8125 109.688 34.9109 109.688 37.5V39.0625C109.688 41.6516 111.786 43.75 114.375 43.75H125.312C127.902 43.75 130 41.6516 130 39.0625V37.5C130 34.9109 127.902 32.8125 125.312 32.8125ZM95.625 12.5V10.9375C95.625 9.21406 97.0266 7.8125 98.75 7.8125H111.25C112.973 7.8125 114.375 9.21406 114.375 10.9375V12.5C114.375 14.2234 112.973 15.625 111.25 15.625H98.75C97.0266 15.625 95.625 14.2234 95.625 12.5ZM98.75 37.5V39.0625C98.75 40.7859 97.3484 42.1875 95.625 42.1875H84.6875C82.9641 42.1875 81.5625 40.7859 81.5625 39.0625V37.5C81.5625 35.7766 82.9641 34.375 84.6875 34.375H95.625C97.3484 34.375 98.75 35.7766 98.75 37.5ZM106.397 30.3672C105.966 30.5828 105.481 30.6969 105 30.6969C104.517 30.6969 104.034 30.5828 103.603 30.3672L94.4313 25.7812L103.603 21.1953C104.034 20.9797 104.519 20.8656 105 20.8656C105.481 20.8656 105.966 20.9797 106.397 21.1953L115.569 25.7812L106.397 30.3672ZM128.438 39.0625C128.438 40.7859 127.036 42.1875 125.312 42.1875H114.375C112.652 42.1875 111.25 40.7859 111.25 39.0625V37.5C111.25 35.7766 112.652 34.375 114.375 34.375H125.312C127.036 34.375 128.438 35.7766 128.438 37.5V39.0625Z" fill="#424242"/>
<path d="M210 40.625V2.08334H160V40.625H175.625V45.8333H171.458V47.9167H198.542V45.8333H194.375V40.625H210ZM162.083 4.16668H207.917V32.2917H162.083V4.16668ZM192.292 45.8333H177.708V40.625H192.292V45.8333ZM162.083 38.5417V34.375H207.917V38.5417H162.083Z" fill="#424242"/>
<path d="M204.792 6.25H191.25V8.33333H204.792V6.25Z" fill="#424242"/>
<path d="M189.167 6.25H183.958V8.33333H189.167V6.25Z" fill="#424242"/>
<path d="M181.875 6.25H179.792V8.33333H181.875V6.25Z" fill="#424242"/>
<path d="M177.708 6.25H175.625V8.33333H177.708V6.25Z" fill="#424242"/>
<path d="M204.792 21.875H192.292V23.9583H204.792V21.875Z" fill="#424242"/>
<path d="M190.208 21.875H188.125V23.9583H190.208V21.875Z" fill="#424242"/>
<path d="M186.042 21.875H183.958V23.9583H186.042V21.875Z" fill="#424242"/>
<path d="M204.792 16.6667H194.375V18.75H204.792V16.6667Z" fill="#424242"/>
<path d="M192.292 16.6667H179.792V18.75H192.292V16.6667Z" fill="#424242"/>
<path d="M187.083 11.4583H182.917V13.5417H187.083V11.4583Z" fill="#424242"/>
<path d="M204.792 11.4583H189.167V13.5417H204.792V11.4583Z" fill="#424242"/>
<path d="M180.833 11.4583H165.208V13.5417H180.833V11.4583Z" fill="#424242"/>
<path d="M204.792 27.0833H185V29.1667H204.792V27.0833Z" fill="#424242"/>
<path d="M177.924 20.6177L176.451 22.0907L179.36 25L176.451 27.9093L177.924 29.3823L182.306 25L177.924 20.6177Z" fill="#424242"/>
<path d="M169.591 22.0907L168.118 20.6177L163.735 25L168.118 29.3823L169.591 27.9093L166.681 25L169.591 22.0907Z" fill="#424242"/>
<path d="M174.135 19.4066L169.972 29.824L171.907 30.5971L176.07 20.1797L174.135 19.4066Z" fill="#424242"/>
<g clip-path="url(#clip1_125_2877)">
<path d="M258.75 45.8333H256.048C254.003 45.8311 252.042 45.0176 250.595 43.5713C249.149 42.1251 248.335 40.1641 248.333 38.1188V31.25C248.332 30.1453 247.893 29.0861 247.112 28.3049C246.331 27.5238 245.271 27.0844 244.167 27.0833V25C245.271 24.9989 246.331 24.5596 247.112 23.7784C247.893 22.9972 248.332 21.9381 248.333 20.8333V13.9646C248.335 11.9192 249.149 9.95827 250.595 8.51199C252.042 7.0657 254.003 6.25221 256.048 6.25H258.75V8.33333H256.048C254.555 8.33499 253.124 8.92881 252.068 9.98451C251.012 11.0402 250.418 12.4716 250.417 13.9646V20.8333C250.416 21.865 250.161 22.8805 249.672 23.7893C249.184 24.6981 248.479 25.4719 247.619 26.0417C248.479 26.6115 249.184 27.3853 249.672 28.2941C250.161 29.2029 250.416 30.2184 250.417 31.25V38.1188C250.418 39.6117 251.012 41.0431 252.068 42.0988C253.124 43.1545 254.555 43.7483 256.048 43.75H258.75V45.8333ZM281.667 38.1188V31.25C281.668 30.1453 282.107 29.0861 282.888 28.3049C283.669 27.5238 284.729 27.0844 285.833 27.0833V25C284.729 24.9989 283.669 24.5596 282.888 23.7784C282.107 22.9972 281.668 21.9381 281.667 20.8333V13.9646C281.664 11.9192 280.851 9.95827 279.405 8.51199C277.958 7.0657 275.997 6.25221 273.952 6.25H271.25V8.33333H273.952C275.445 8.33499 276.876 8.92881 277.932 9.98451C278.988 11.0402 279.582 12.4716 279.583 13.9646V20.8333C279.584 21.865 279.839 22.8805 280.327 23.7893C280.816 24.6981 281.521 25.4719 282.381 26.0417C281.521 26.6115 280.816 27.3853 280.327 28.2941C279.839 29.2029 279.584 30.2184 279.583 31.25V38.1188C279.582 39.6117 278.988 41.0431 277.932 42.0988C276.876 43.1545 275.445 43.7483 273.952 43.75H271.25V45.8333H273.952C275.997 45.8311 277.958 45.0176 279.405 43.5713C280.851 42.1251 281.664 40.1641 281.667 38.1188Z" fill="#424242"/>
</g>
<path d="M369.202 2.12762H320.798C320.357 2.12762 320 2.48475 320 2.92548V47.0744C320 47.5151 320.357 47.8723 320.798 47.8723H369.202C369.643 47.8723 370 47.5151 370 47.0744V2.92548C370 2.48475 369.643 2.12762 369.202 2.12762ZM368.404 46.2765H321.596V10.1063H368.404V46.2765ZM368.404 8.51063H321.596V3.72342H368.404V8.51063Z" fill="#424242"/>
<path d="M366.011 38.2979C366.451 38.2979 366.808 37.9407 366.808 37.5V12.5C366.808 12.0593 366.451 11.7021 366.011 11.7021H323.989C323.549 11.7021 323.192 12.0593 323.192 12.5V43.883C323.192 44.3237 323.549 44.6809 323.989 44.6809H366.011C366.451 44.6809 366.808 44.3237 366.808 43.883V40.6915C366.808 40.2508 366.451 39.8936 366.011 39.8936C365.57 39.8936 365.213 40.2508 365.213 40.6915V43.0852H324.787V13.2979H365.213V37.5C365.213 37.9407 365.57 38.2979 366.011 38.2979Z" fill="#424242"/>
<path d="M333.83 16.2234C332.51 16.2234 331.436 17.2973 331.436 18.6171V20.7447C331.436 22.0646 332.51 23.1384 333.83 23.1384C335.15 23.1384 336.223 22.0646 336.223 20.7447V18.6171C336.223 17.2973 335.15 16.2234 333.83 16.2234ZM334.628 20.7447C334.628 21.1848 334.27 21.5426 333.83 21.5426C333.39 21.5426 333.032 21.1847 333.032 20.7447V18.6171C333.032 18.1771 333.39 17.8192 333.83 17.8192C334.27 17.8192 334.628 18.1772 334.628 18.6171V20.7447Z" fill="#424242"/>
<path d="M338.617 16.2234C338.176 16.2234 337.819 16.5806 337.819 17.0213V22.3404C337.819 22.7812 338.176 23.1383 338.617 23.1383C339.058 23.1383 339.415 22.7812 339.415 22.3404V17.0213C339.415 16.5806 339.058 16.2234 338.617 16.2234Z" fill="#424242"/>
<path d="M343.404 16.2234C342.084 16.2234 341.011 17.2973 341.011 18.6171V20.7447C341.011 22.0646 342.084 23.1384 343.404 23.1384C344.724 23.1384 345.798 22.0646 345.798 20.7447V18.6171C345.798 17.2973 344.724 16.2234 343.404 16.2234ZM344.202 20.7447C344.202 21.1848 343.844 21.5426 343.404 21.5426C342.964 21.5426 342.606 21.1847 342.606 20.7447V18.6171C342.606 18.1771 342.964 17.8192 343.404 17.8192C343.844 17.8192 344.202 18.1772 344.202 18.6171V20.7447Z" fill="#424242"/>
<path d="M348.191 16.2234C347.751 16.2234 347.394 16.5806 347.394 17.0213V22.3404C347.394 22.7812 347.751 23.1383 348.191 23.1383C348.632 23.1383 348.989 22.7812 348.989 22.3404V17.0213C348.989 16.5806 348.632 16.2234 348.191 16.2234Z" fill="#424242"/>
<path d="M351.383 16.2234C350.942 16.2234 350.585 16.5806 350.585 17.0213V22.3404C350.585 22.7812 350.942 23.1383 351.383 23.1383C351.824 23.1383 352.181 22.7812 352.181 22.3404V17.0213C352.181 16.5806 351.824 16.2234 351.383 16.2234Z" fill="#424242"/>
<path d="M356.17 16.2234C354.85 16.2234 353.777 17.2973 353.777 18.6171V20.7447C353.777 22.0646 354.85 23.1384 356.17 23.1384C357.49 23.1384 358.564 22.0646 358.564 20.7447V18.6171C358.564 17.2973 357.49 16.2234 356.17 16.2234ZM356.968 20.7447C356.968 21.1848 356.61 21.5426 356.17 21.5426C355.73 21.5426 355.372 21.1847 355.372 20.7447V18.6171C355.372 18.1771 355.73 17.8192 356.17 17.8192C356.61 17.8192 356.968 18.1772 356.968 18.6171V20.7447Z" fill="#424242"/>
<path d="M337.021 33.2447C335.701 33.2447 334.628 34.3186 334.628 35.6384V37.766C334.628 39.0858 335.701 40.1597 337.021 40.1597C338.341 40.1597 339.415 39.0858 339.415 37.766V35.6384C339.415 34.3186 338.341 33.2447 337.021 33.2447ZM337.819 37.7659C337.819 38.206 337.461 38.5638 337.021 38.5638C336.581 38.5638 336.223 38.2059 336.223 37.7659V35.6383C336.223 35.1982 336.581 34.8404 337.021 34.8404C337.461 34.8404 337.819 35.1983 337.819 35.6383V37.7659Z" fill="#424242"/>
<path d="M332.234 33.2447C331.793 33.2447 331.436 33.6019 331.436 34.0426V39.3617C331.436 39.8024 331.793 40.1596 332.234 40.1596C332.675 40.1596 333.032 39.8024 333.032 39.3617V34.0426C333.032 33.6018 332.675 33.2447 332.234 33.2447Z" fill="#424242"/>
<path d="M343.404 33.2447C342.084 33.2447 341.011 34.3186 341.011 35.6384V37.766C341.011 39.0858 342.084 40.1597 343.404 40.1597C344.724 40.1597 345.798 39.0858 345.798 37.766V35.6384C345.798 34.3186 344.724 33.2447 343.404 33.2447ZM344.202 37.7659C344.202 38.206 343.844 38.5638 343.404 38.5638C342.964 38.5638 342.606 38.2059 342.606 37.7659V35.6383C342.606 35.1982 342.964 34.8404 343.404 34.8404C343.844 34.8404 344.202 35.1983 344.202 35.6383V37.7659Z" fill="#424242"/>
<path d="M348.191 33.2447C347.751 33.2447 347.394 33.6019 347.394 34.0426V39.3617C347.394 39.8024 347.751 40.1596 348.191 40.1596C348.632 40.1596 348.989 39.8024 348.989 39.3617V34.0426C348.989 33.6018 348.632 33.2447 348.191 33.2447Z" fill="#424242"/>
<path d="M351.383 33.2447C350.942 33.2447 350.585 33.6019 350.585 34.0426V39.3617C350.585 39.8024 350.942 40.1596 351.383 40.1596C351.824 40.1596 352.181 39.8024 352.181 39.3617V34.0426C352.181 33.6018 351.824 33.2447 351.383 33.2447Z" fill="#424242"/>
<path d="M356.17 33.2447C354.85 33.2447 353.777 34.3186 353.777 35.6384V37.766C353.777 39.0858 354.85 40.1597 356.17 40.1597C357.49 40.1597 358.564 39.0858 358.564 37.766V35.6384C358.564 34.3186 357.49 33.2447 356.17 33.2447ZM356.968 37.7659C356.968 38.206 356.61 38.5638 356.17 38.5638C355.73 38.5638 355.372 38.2059 355.372 37.7659V35.6383C355.372 35.1982 355.73 34.8404 356.17 34.8404C356.61 34.8404 356.968 35.1983 356.968 35.6383V37.7659Z" fill="#424242"/>
<path d="M356.17 24.7341C354.85 24.7341 353.777 25.8079 353.777 27.1277V29.2554C353.777 30.5752 354.85 31.649 356.17 31.649C357.49 31.649 358.564 30.5752 358.564 29.2554V27.1277C358.564 25.8079 357.49 24.7341 356.17 24.7341ZM356.968 29.2553C356.968 29.6953 356.61 30.0531 356.17 30.0531C355.73 30.0531 355.372 29.6952 355.372 29.2553V27.1276C355.372 26.6876 355.73 26.3298 356.17 26.3298C356.61 26.3298 356.968 26.6877 356.968 27.1276V29.2553Z" fill="#424242"/>
<path d="M351.383 24.7341C350.942 24.7341 350.585 25.0912 350.585 25.5319V30.8511C350.585 31.2918 350.942 31.6489 351.383 31.6489C351.824 31.6489 352.181 31.2918 352.181 30.8511V25.5319C352.181 25.0912 351.824 24.7341 351.383 24.7341Z" fill="#424242"/>
<path d="M346.596 24.7341C345.276 24.7341 344.202 25.8079 344.202 27.1277V29.2554C344.202 30.5752 345.276 31.649 346.596 31.649C347.916 31.649 348.989 30.5752 348.989 29.2554V27.1277C348.989 25.8079 347.916 24.7341 346.596 24.7341ZM347.394 29.2553C347.394 29.6953 347.036 30.0531 346.596 30.0531C346.156 30.0531 345.798 29.6952 345.798 29.2553V27.1276C345.798 26.6876 346.156 26.3298 346.596 26.3298C347.036 26.3298 347.394 26.6877 347.394 27.1276V29.2553Z" fill="#424242"/>
<path d="M341.809 24.7341C341.368 24.7341 341.011 25.0912 341.011 25.5319V30.8511C341.011 31.2918 341.368 31.6489 341.809 31.6489C342.249 31.6489 342.606 31.2918 342.606 30.8511V25.5319C342.606 25.0912 342.249 24.7341 341.809 24.7341Z" fill="#424242"/>
<path d="M338.617 24.7341C338.176 24.7341 337.819 25.0912 337.819 25.5319V30.8511C337.819 31.2918 338.176 31.6489 338.617 31.6489C339.058 31.6489 339.415 31.2918 339.415 30.8511V25.5319C339.415 25.0912 339.058 24.7341 338.617 24.7341Z" fill="#424242"/>
<path d="M333.83 24.7341C332.51 24.7341 331.436 25.8079 331.436 27.1277V29.2554C331.436 30.5752 332.51 31.649 333.83 31.649C335.15 31.649 336.223 30.5752 336.223 29.2554V27.1277C336.223 25.8079 335.15 24.7341 333.83 24.7341ZM334.628 29.2553C334.628 29.6953 334.27 30.0531 333.83 30.0531C333.39 30.0531 333.032 29.6952 333.032 29.2553V27.1276C333.032 26.6876 333.39 26.3298 333.83 26.3298C334.27 26.3298 334.628 26.6877 334.628 27.1276V29.2553Z" fill="#424242"/>
<path d="M362.021 6.91486C362.462 6.91486 362.819 6.55765 362.819 6.117C362.819 5.67636 362.462 5.31915 362.021 5.31915C361.581 5.31915 361.223 5.67636 361.223 6.117C361.223 6.55765 361.581 6.91486 362.021 6.91486Z" fill="#424242"/>
<path d="M358.83 6.91486C359.27 6.91486 359.628 6.55765 359.628 6.117C359.628 5.67636 359.27 5.31915 358.83 5.31915C358.389 5.31915 358.032 5.67636 358.032 6.117C358.032 6.55765 358.389 6.91486 358.83 6.91486Z" fill="#424242"/>
<path d="M365.213 6.91486C365.653 6.91486 366.011 6.55765 366.011 6.117C366.011 5.67636 365.653 5.31915 365.213 5.31915C364.772 5.31915 364.415 5.67636 364.415 6.117C364.415 6.55765 364.772 6.91486 365.213 6.91486Z" fill="#424242"/>
<defs>
<clipPath id="clip0_125_2877">
<rect width="50" height="50" fill="white"/>
</clipPath>
<clipPath id="clip1_125_2877">
<rect width="50" height="50" fill="white" transform="translate(240)"/>
</clipPath>
</defs>
</svg>
