<svg width="50" height="50" viewBox="0 0 50 50" fill="none" xmlns="http://www.w3.org/2000/svg">
<path d="M49.2021 2.12762H0.797852C0.357129 2.12762 0 2.48475 0 2.92548V47.0744C0 47.5151 0.357129 47.8723 0.797852 47.8723H49.2021C49.6429 47.8723 50 47.5151 50 47.0744V2.92548C50 2.48475 49.6429 2.12762 49.2021 2.12762ZM48.4043 46.2765H1.5957V10.1063H48.4043V46.2765ZM48.4043 8.51063H1.5957V3.72342H48.4043V8.51063Z" fill="#424242"/>
<path d="M46.0107 38.2979C46.4514 38.2979 46.8085 37.9407 46.8085 37.5V12.5C46.8085 12.0593 46.4514 11.7021 46.0107 11.7021H3.98938C3.54866 11.7021 3.19153 12.0593 3.19153 12.5V43.883C3.19153 44.3237 3.54866 44.6809 3.98938 44.6809H46.0107C46.4514 44.6809 46.8085 44.3237 46.8085 43.883V40.6915C46.8085 40.2508 46.4514 39.8936 46.0107 39.8936C45.5699 39.8936 45.2128 40.2508 45.2128 40.6915V43.0852H4.78723V13.2979H45.2127V37.5C45.2128 37.9407 45.5699 38.2979 46.0107 38.2979Z" fill="#424242"/>
<path d="M13.8298 16.2234C12.51 16.2234 11.4362 17.2973 11.4362 18.6171V20.7447C11.4362 22.0646 12.51 23.1384 13.8298 23.1384C15.1496 23.1384 16.2235 22.0646 16.2235 20.7447V18.6171C16.2235 17.2973 15.1496 16.2234 13.8298 16.2234ZM14.6277 20.7447C14.6277 21.1848 14.2698 21.5426 13.8298 21.5426C13.3898 21.5426 13.032 21.1847 13.032 20.7447V18.6171C13.032 18.1771 13.3899 17.8192 13.8298 17.8192C14.2698 17.8192 14.6277 18.1772 14.6277 18.6171V20.7447Z" fill="#424242"/>
<path d="M18.6169 16.2234C18.1762 16.2234 17.8191 16.5806 17.8191 17.0213V22.3404C17.8191 22.7812 18.1762 23.1383 18.6169 23.1383C19.0577 23.1383 19.4148 22.7812 19.4148 22.3404V17.0213C19.4149 16.5806 19.0578 16.2234 18.6169 16.2234Z" fill="#424242"/>
<path d="M23.4043 16.2234C22.0844 16.2234 21.0106 17.2973 21.0106 18.6171V20.7447C21.0106 22.0646 22.0844 23.1384 23.4043 23.1384C24.7241 23.1384 25.7979 22.0646 25.7979 20.7447V18.6171C25.7978 17.2973 24.724 16.2234 23.4043 16.2234ZM24.2021 20.7447C24.2021 21.1848 23.8442 21.5426 23.4043 21.5426C22.9642 21.5426 22.6064 21.1847 22.6064 20.7447V18.6171C22.6064 18.1771 22.9643 17.8192 23.4043 17.8192C23.8443 17.8192 24.2021 18.1772 24.2021 18.6171V20.7447Z" fill="#424242"/>
<path d="M28.1915 16.2234C27.7508 16.2234 27.3937 16.5806 27.3937 17.0213V22.3404C27.3937 22.7812 27.7508 23.1383 28.1915 23.1383C28.6323 23.1383 28.9894 22.7812 28.9894 22.3404V17.0213C28.9894 16.5806 28.6323 16.2234 28.1915 16.2234Z" fill="#424242"/>
<path d="M31.3831 16.2234C30.9423 16.2234 30.5852 16.5806 30.5852 17.0213V22.3404C30.5852 22.7812 30.9423 23.1383 31.3831 23.1383C31.8238 23.1383 32.1809 22.7812 32.1809 22.3404V17.0213C32.1809 16.5806 31.8238 16.2234 31.3831 16.2234Z" fill="#424242"/>
<path d="M36.1703 16.2234C34.8504 16.2234 33.7766 17.2973 33.7766 18.6171V20.7447C33.7766 22.0646 34.8504 23.1384 36.1703 23.1384C37.4901 23.1384 38.5639 22.0646 38.5639 20.7447V18.6171C38.5639 17.2973 37.4901 16.2234 36.1703 16.2234ZM36.9681 20.7447C36.9681 21.1848 36.6102 21.5426 36.1703 21.5426C35.7302 21.5426 35.3724 21.1847 35.3724 20.7447V18.6171C35.3724 18.1771 35.7303 17.8192 36.1703 17.8192C36.6103 17.8192 36.9681 18.1772 36.9681 18.6171V20.7447Z" fill="#424242"/>
<path d="M17.0213 33.2447C15.7015 33.2447 14.6277 34.3186 14.6277 35.6384V37.766C14.6277 39.0858 15.7015 40.1597 17.0213 40.1597C18.3412 40.1597 19.415 39.0858 19.415 37.766V35.6384C19.415 34.3186 18.3411 33.2447 17.0213 33.2447ZM17.8192 37.7659C17.8192 38.206 17.4613 38.5638 17.0213 38.5638C16.5813 38.5638 16.2235 38.2059 16.2235 37.7659V35.6383C16.2235 35.1982 16.5814 34.8404 17.0213 34.8404C17.4614 34.8404 17.8192 35.1983 17.8192 35.6383V37.7659Z" fill="#424242"/>
<path d="M12.2341 33.2447C11.7934 33.2447 11.4363 33.6019 11.4363 34.0426V39.3617C11.4363 39.8024 11.7934 40.1596 12.2341 40.1596C12.6749 40.1596 13.032 39.8024 13.032 39.3617V34.0426C13.032 33.6018 12.6749 33.2447 12.2341 33.2447Z" fill="#424242"/>
<path d="M23.4043 33.2447C22.0844 33.2447 21.0106 34.3186 21.0106 35.6384V37.766C21.0106 39.0858 22.0844 40.1597 23.4043 40.1597C24.7241 40.1597 25.7979 39.0858 25.7979 37.766V35.6384C25.7978 34.3186 24.724 33.2447 23.4043 33.2447ZM24.2021 37.7659C24.2021 38.206 23.8442 38.5638 23.4043 38.5638C22.9642 38.5638 22.6064 38.2059 22.6064 37.7659V35.6383C22.6064 35.1982 22.9643 34.8404 23.4043 34.8404C23.8443 34.8404 24.2021 35.1983 24.2021 35.6383V37.7659Z" fill="#424242"/>
<path d="M28.1915 33.2447C27.7508 33.2447 27.3937 33.6019 27.3937 34.0426V39.3617C27.3937 39.8024 27.7508 40.1596 28.1915 40.1596C28.6323 40.1596 28.9894 39.8024 28.9894 39.3617V34.0426C28.9894 33.6018 28.6323 33.2447 28.1915 33.2447Z" fill="#424242"/>
<path d="M31.3831 33.2447C30.9423 33.2447 30.5852 33.6019 30.5852 34.0426V39.3617C30.5852 39.8024 30.9423 40.1596 31.3831 40.1596C31.8238 40.1596 32.1809 39.8024 32.1809 39.3617V34.0426C32.1809 33.6018 31.8238 33.2447 31.3831 33.2447Z" fill="#424242"/>
<path d="M36.1703 33.2447C34.8504 33.2447 33.7766 34.3186 33.7766 35.6384V37.766C33.7766 39.0858 34.8504 40.1597 36.1703 40.1597C37.4901 40.1597 38.5639 39.0858 38.5639 37.766V35.6384C38.5639 34.3186 37.4901 33.2447 36.1703 33.2447ZM36.9681 37.7659C36.9681 38.206 36.6102 38.5638 36.1703 38.5638C35.7302 38.5638 35.3724 38.2059 35.3724 37.7659V35.6383C35.3724 35.1982 35.7303 34.8404 36.1703 34.8404C36.6103 34.8404 36.9681 35.1983 36.9681 35.6383V37.7659Z" fill="#424242"/>
<path d="M36.1703 24.7341C34.8504 24.7341 33.7766 25.8079 33.7766 27.1277V29.2554C33.7766 30.5752 34.8504 31.649 36.1703 31.649C37.4901 31.649 38.5639 30.5752 38.5639 29.2554V27.1277C38.5639 25.8079 37.4901 24.7341 36.1703 24.7341ZM36.9681 29.2553C36.9681 29.6953 36.6102 30.0531 36.1703 30.0531C35.7302 30.0531 35.3724 29.6952 35.3724 29.2553V27.1276C35.3724 26.6876 35.7303 26.3298 36.1703 26.3298C36.6103 26.3298 36.9681 26.6877 36.9681 27.1276V29.2553Z" fill="#424242"/>
<path d="M31.3831 24.7341C30.9423 24.7341 30.5852 25.0912 30.5852 25.5319V30.8511C30.5852 31.2918 30.9423 31.6489 31.3831 31.6489C31.8238 31.6489 32.1809 31.2918 32.1809 30.8511V25.5319C32.1809 25.0912 31.8238 24.7341 31.3831 24.7341Z" fill="#424242"/>
<path d="M26.5957 24.7341C25.2759 24.7341 24.202 25.8079 24.202 27.1277V29.2554C24.202 30.5752 25.2759 31.649 26.5957 31.649C27.9155 31.649 28.9893 30.5752 28.9893 29.2554V27.1277C28.9893 25.8079 27.9155 24.7341 26.5957 24.7341ZM27.3936 29.2553C27.3936 29.6953 27.0357 30.0531 26.5958 30.0531C26.1557 30.0531 25.7979 29.6952 25.7979 29.2553V27.1276C25.7979 26.6876 26.1558 26.3298 26.5958 26.3298C27.0358 26.3298 27.3936 26.6877 27.3936 27.1276V29.2553Z" fill="#424242"/>
<path d="M21.8085 24.7341C21.3677 24.7341 21.0106 25.0912 21.0106 25.5319V30.8511C21.0106 31.2918 21.3677 31.6489 21.8085 31.6489C22.2492 31.6489 22.6063 31.2918 22.6063 30.8511V25.5319C22.6063 25.0912 22.2492 24.7341 21.8085 24.7341Z" fill="#424242"/>
<path d="M18.6169 24.7341C18.1762 24.7341 17.8191 25.0912 17.8191 25.5319V30.8511C17.8191 31.2918 18.1762 31.6489 18.6169 31.6489C19.0577 31.6489 19.4148 31.2918 19.4148 30.8511V25.5319C19.4149 25.0912 19.0578 24.7341 18.6169 24.7341Z" fill="#424242"/>
<path d="M13.8298 24.7341C12.51 24.7341 11.4362 25.8079 11.4362 27.1277V29.2554C11.4362 30.5752 12.51 31.649 13.8298 31.649C15.1496 31.649 16.2235 30.5752 16.2235 29.2554V27.1277C16.2235 25.8079 15.1496 24.7341 13.8298 24.7341ZM14.6277 29.2553C14.6277 29.6953 14.2698 30.0531 13.8298 30.0531C13.3898 30.0531 13.032 29.6952 13.032 29.2553V27.1276C13.032 26.6876 13.3899 26.3298 13.8298 26.3298C14.2698 26.3298 14.6277 26.6877 14.6277 27.1276V29.2553Z" fill="#424242"/>
<path d="M42.0212 6.91486C42.4619 6.91486 42.8191 6.55765 42.8191 6.117C42.8191 5.67636 42.4619 5.31915 42.0212 5.31915C41.5806 5.31915 41.2234 5.67636 41.2234 6.117C41.2234 6.55765 41.5806 6.91486 42.0212 6.91486Z" fill="#424242"/>
<path d="M38.8298 6.91486C39.2705 6.91486 39.6277 6.55765 39.6277 6.117C39.6277 5.67636 39.2705 5.31915 38.8298 5.31915C38.3892 5.31915 38.032 5.67636 38.032 6.117C38.032 6.55765 38.3892 6.91486 38.8298 6.91486Z" fill="#424242"/>
<path d="M45.2128 6.91486C45.6534 6.91486 46.0106 6.55765 46.0106 6.117C46.0106 5.67636 45.6534 5.31915 45.2128 5.31915C44.7721 5.31915 44.4149 5.67636 44.4149 6.117C44.4149 6.55765 44.7721 6.91486 45.2128 6.91486Z" fill="#424242"/>
</svg>
