<svg width="50" height="50" viewBox="0 0 50 50" fill="none" xmlns="http://www.w3.org/2000/svg">
<g clip-path="url(#clip0_103_2853)">
<path d="M18.75 45.8333H16.0479C14.0025 45.8311 12.0416 45.0176 10.5953 43.5713C9.14899 42.1251 8.3355 40.1641 8.33329 38.1188V31.25C8.33219 30.1453 7.89285 29.0861 7.11169 28.3049C6.33052 27.5238 5.27136 27.0844 4.16663 27.0833V25C5.27136 24.9989 6.33052 24.5596 7.11169 23.7784C7.89285 22.9972 8.33219 21.9381 8.33329 20.8333V13.9646C8.3355 11.9192 9.14899 9.95827 10.5953 8.51199C12.0416 7.0657 14.0025 6.25221 16.0479 6.25H18.75V8.33333H16.0479C14.5549 8.33499 13.1235 8.92881 12.0678 9.98451C11.0121 11.0402 10.4183 12.4716 10.4166 13.9646V20.8333C10.4163 21.865 10.1607 22.8805 9.67247 23.7893C9.18426 24.6981 8.47869 25.4719 7.61871 26.0417C8.47869 26.6115 9.18426 27.3853 9.67247 28.2941C10.1607 29.2029 10.4163 30.2184 10.4166 31.25V38.1188C10.4183 39.6117 11.0121 41.0431 12.0678 42.0988C13.1235 43.1545 14.5549 43.7483 16.0479 43.75H18.75V45.8333ZM41.6666 38.1188V31.25C41.6677 30.1453 42.1071 29.0861 42.8882 28.3049C43.6694 27.5238 44.7286 27.0844 45.8333 27.0833V25C44.7286 24.9989 43.6694 24.5596 42.8882 23.7784C42.1071 22.9972 41.6677 21.9381 41.6666 20.8333V13.9646C41.6644 11.9192 40.8509 9.95827 39.4046 8.51199C37.9584 7.0657 35.9974 6.25221 33.952 6.25H31.25V8.33333H33.952C35.445 8.33499 36.8764 8.92881 37.9321 9.98451C38.9878 11.0402 39.5816 12.4716 39.5833 13.9646V20.8333C39.5836 21.865 39.8392 22.8805 40.3275 23.7893C40.8157 24.6981 41.5212 25.4719 42.3812 26.0417C41.5212 26.6115 40.8157 27.3853 40.3275 28.2941C39.8392 29.2029 39.5836 30.2184 39.5833 31.25V38.1188C39.5816 39.6117 38.9878 41.0431 37.9321 42.0988C36.8764 43.1545 35.445 43.7483 33.952 43.75H31.25V45.8333H33.952C35.9974 45.8311 37.9584 45.0176 39.4046 43.5713C40.8509 42.1251 41.6644 40.1641 41.6666 38.1188Z" fill="#424242"/>
</g>
<defs>
<clipPath id="clip0_103_2853">
<rect width="50" height="50" fill="white"/>
</clipPath>
</defs>
</svg>
