<svg width="50" height="50" viewBox="0 0 50 50" fill="none" xmlns="http://www.w3.org/2000/svg">
<path d="M45.3125 32.8125H40.625V27.4578C40.625 26.1656 39.5734 25.1141 38.2812 25.1141H36.9703C36.8312 24.8172 36.6047 24.5531 36.2672 24.3844L27.0953 19.7984C26.6766 19.5891 26.2313 19.4703 25.7797 19.3937V17.1875H31.25C33.8391 17.1875 35.9375 15.0891 35.9375 12.5V10.9375C35.9375 8.34844 33.8391 6.25 31.25 6.25H18.75C16.1609 6.25 14.0625 8.34844 14.0625 10.9375V12.5C14.0625 15.0891 16.1609 17.1875 18.75 17.1875H24.2188V19.3937C23.7672 19.4703 23.3234 19.5891 22.9031 19.7984L13.7313 24.3844C13.3938 24.5531 13.1688 24.8172 13.0281 25.1141H11.7188C10.4266 25.1141 9.375 26.1656 9.375 27.4578V32.8125H4.6875C2.09844 32.8125 0 34.9109 0 37.5V39.0625C0 41.6516 2.09844 43.75 4.6875 43.75H15.625C18.2141 43.75 20.3125 41.6516 20.3125 39.0625V37.5C20.3125 34.9109 18.2141 32.8125 15.625 32.8125H10.9375V27.4578C10.9375 27.0266 11.2891 26.6766 11.7188 26.6766H13.1625C13.3031 26.8766 13.4859 27.0563 13.7328 27.1797L22.9047 31.7656C23.5641 32.0953 24.2828 32.2609 25.0016 32.2609C25.7203 32.2609 26.4375 32.0953 27.0984 31.7656L36.2703 27.1797C36.5172 27.0563 36.7 26.8781 36.8406 26.6766H38.2812C38.7109 26.6766 39.0625 27.0266 39.0625 27.4578V32.8125H34.375C31.7859 32.8125 29.6875 34.9109 29.6875 37.5V39.0625C29.6875 41.6516 31.7859 43.75 34.375 43.75H45.3125C47.9016 43.75 50 41.6516 50 39.0625V37.5C50 34.9109 47.9016 32.8125 45.3125 32.8125ZM15.625 12.5V10.9375C15.625 9.21406 17.0266 7.8125 18.75 7.8125H31.25C32.9734 7.8125 34.375 9.21406 34.375 10.9375V12.5C34.375 14.2234 32.9734 15.625 31.25 15.625H18.75C17.0266 15.625 15.625 14.2234 15.625 12.5ZM18.75 37.5V39.0625C18.75 40.7859 17.3484 42.1875 15.625 42.1875H4.6875C2.96406 42.1875 1.5625 40.7859 1.5625 39.0625V37.5C1.5625 35.7766 2.96406 34.375 4.6875 34.375H15.625C17.3484 34.375 18.75 35.7766 18.75 37.5ZM26.3969 30.3672C25.9656 30.5828 25.4812 30.6969 25 30.6969C24.5172 30.6969 24.0344 30.5828 23.6031 30.3672L14.4313 25.7812L23.6031 21.1953C24.0344 20.9797 24.5188 20.8656 25 20.8656C25.4812 20.8656 25.9656 20.9797 26.3969 21.1953L35.5687 25.7812L26.3969 30.3672ZM48.4375 39.0625C48.4375 40.7859 47.0359 42.1875 45.3125 42.1875H34.375C32.6516 42.1875 31.25 40.7859 31.25 39.0625V37.5C31.25 35.7766 32.6516 34.375 34.375 34.375H45.3125C47.0359 34.375 48.4375 35.7766 48.4375 37.5V39.0625Z" fill="#424242"/>
</svg>
