<svg width="50" height="50" viewBox="0 0 50 50" fill="none" xmlns="http://www.w3.org/2000/svg">
<path d="M49.2021 2.12762H0.797852C0.357129 2.12762 0 2.48475 0 2.92548V47.0744C0 47.5151 0.357129 47.8723 0.797852 47.8723H49.2021C49.6429 47.8723 50 47.5151 50 47.0744V2.92548C50 2.48475 49.6429 2.12762 49.2021 2.12762ZM48.4043 46.2765H1.5957V10.1063H48.4043V46.2765ZM48.4043 8.51063H1.5957V3.72342H48.4043V8.51063Z" fill="#616161"/>
<path d="M46.0105 38.2979C46.4513 38.2979 46.8084 37.9407 46.8084 37.5V12.5C46.8084 12.0593 46.4513 11.7021 46.0105 11.7021H3.98926C3.54854 11.7021 3.19141 12.0593 3.19141 12.5V43.883C3.19141 44.3237 3.54854 44.6809 3.98926 44.6809H46.0105C46.4513 44.6809 46.8084 44.3237 46.8084 43.883V40.6915C46.8084 40.2508 46.4513 39.8936 46.0105 39.8936C45.5698 39.8936 45.2127 40.2508 45.2127 40.6915V43.0852H4.78711V13.2979H45.2126V37.5C45.2127 37.9407 45.5698 38.2979 46.0105 38.2979Z" fill="#616161"/>
<path d="M13.8297 16.2234C12.5099 16.2234 11.436 17.2973 11.436 18.6171V20.7447C11.436 22.0646 12.5099 23.1384 13.8297 23.1384C15.1495 23.1384 16.2233 22.0646 16.2233 20.7447V18.6171C16.2233 17.2973 15.1495 16.2234 13.8297 16.2234ZM14.6275 20.7447C14.6275 21.1848 14.2696 21.5426 13.8297 21.5426C13.3896 21.5426 13.0318 21.1847 13.0318 20.7447V18.6171C13.0318 18.1771 13.3897 17.8192 13.8297 17.8192C14.2697 17.8192 14.6275 18.1772 14.6275 18.6171V20.7447Z" fill="#616161"/>
<path d="M18.6169 16.2234C18.1762 16.2234 17.8191 16.5806 17.8191 17.0213V22.3404C17.8191 22.7812 18.1762 23.1383 18.6169 23.1383C19.0577 23.1383 19.4148 22.7812 19.4148 22.3404V17.0213C19.4149 16.5806 19.0578 16.2234 18.6169 16.2234Z" fill="#616161"/>
<path d="M23.4044 16.2234C22.0846 16.2234 21.0107 17.2973 21.0107 18.6171V20.7447C21.0107 22.0646 22.0846 23.1384 23.4044 23.1384C24.7242 23.1384 25.798 22.0646 25.798 20.7447V18.6171C25.7979 17.2973 24.7241 16.2234 23.4044 16.2234ZM24.2022 20.7447C24.2022 21.1848 23.8443 21.5426 23.4044 21.5426C22.9644 21.5426 22.6065 21.1847 22.6065 20.7447V18.6171C22.6065 18.1771 22.9645 17.8192 23.4044 17.8192C23.8444 17.8192 24.2022 18.1772 24.2022 18.6171V20.7447Z" fill="#616161"/>
<path d="M28.1914 16.2234C27.7507 16.2234 27.3936 16.5806 27.3936 17.0213V22.3404C27.3936 22.7812 27.7507 23.1383 28.1914 23.1383C28.6321 23.1383 28.9893 22.7812 28.9893 22.3404V17.0213C28.9893 16.5806 28.6321 16.2234 28.1914 16.2234Z" fill="#616161"/>
<path d="M31.3831 16.2234C30.9423 16.2234 30.5852 16.5806 30.5852 17.0213V22.3404C30.5852 22.7812 30.9423 23.1383 31.3831 23.1383C31.8238 23.1383 32.1809 22.7812 32.1809 22.3404V17.0213C32.1809 16.5806 31.8238 16.2234 31.3831 16.2234Z" fill="#616161"/>
<path d="M36.17 16.2234C34.8502 16.2234 33.7764 17.2973 33.7764 18.6171V20.7447C33.7764 22.0646 34.8502 23.1384 36.17 23.1384C37.4898 23.1384 38.5637 22.0646 38.5637 20.7447V18.6171C38.5637 17.2973 37.4898 16.2234 36.17 16.2234ZM36.9679 20.7447C36.9679 21.1848 36.61 21.5426 36.17 21.5426C35.73 21.5426 35.3722 21.1847 35.3722 20.7447V18.6171C35.3722 18.1771 35.7301 17.8192 36.17 17.8192C36.6101 17.8192 36.9679 18.1772 36.9679 18.6171V20.7447Z" fill="#616161"/>
<path d="M17.0213 33.2447C15.7015 33.2447 14.6277 34.3186 14.6277 35.6384V37.766C14.6277 39.0858 15.7015 40.1597 17.0213 40.1597C18.3412 40.1597 19.415 39.0858 19.415 37.766V35.6384C19.415 34.3186 18.3411 33.2447 17.0213 33.2447ZM17.8192 37.7659C17.8192 38.206 17.4613 38.5638 17.0213 38.5638C16.5813 38.5638 16.2235 38.2059 16.2235 37.7659V35.6383C16.2235 35.1982 16.5814 34.8404 17.0213 34.8404C17.4614 34.8404 17.8192 35.1983 17.8192 35.6383V37.7659Z" fill="#616161"/>
<path d="M12.2341 33.2447C11.7934 33.2447 11.4363 33.6019 11.4363 34.0426V39.3617C11.4363 39.8024 11.7934 40.1596 12.2341 40.1596C12.6749 40.1596 13.032 39.8024 13.032 39.3617V34.0426C13.032 33.6018 12.6749 33.2447 12.2341 33.2447Z" fill="#616161"/>
<path d="M23.4044 33.2447C22.0846 33.2447 21.0107 34.3186 21.0107 35.6384V37.766C21.0107 39.0858 22.0846 40.1597 23.4044 40.1597C24.7242 40.1597 25.798 39.0858 25.798 37.766V35.6384C25.7979 34.3186 24.7241 33.2447 23.4044 33.2447ZM24.2022 37.7659C24.2022 38.206 23.8443 38.5638 23.4044 38.5638C22.9644 38.5638 22.6065 38.2059 22.6065 37.7659V35.6383C22.6065 35.1982 22.9645 34.8404 23.4044 34.8404C23.8444 34.8404 24.2022 35.1983 24.2022 35.6383V37.7659Z" fill="#616161"/>
<path d="M28.1914 33.2447C27.7507 33.2447 27.3936 33.6019 27.3936 34.0426V39.3617C27.3936 39.8024 27.7507 40.1596 28.1914 40.1596C28.6321 40.1596 28.9893 39.8024 28.9893 39.3617V34.0426C28.9893 33.6018 28.6321 33.2447 28.1914 33.2447Z" fill="#616161"/>
<path d="M31.3831 33.2447C30.9423 33.2447 30.5852 33.6019 30.5852 34.0426V39.3617C30.5852 39.8024 30.9423 40.1596 31.3831 40.1596C31.8238 40.1596 32.1809 39.8024 32.1809 39.3617V34.0426C32.1809 33.6018 31.8238 33.2447 31.3831 33.2447Z" fill="#616161"/>
<path d="M36.17 33.2447C34.8502 33.2447 33.7764 34.3186 33.7764 35.6384V37.766C33.7764 39.0858 34.8502 40.1597 36.17 40.1597C37.4898 40.1597 38.5637 39.0858 38.5637 37.766V35.6384C38.5637 34.3186 37.4898 33.2447 36.17 33.2447ZM36.9679 37.7659C36.9679 38.206 36.61 38.5638 36.17 38.5638C35.73 38.5638 35.3722 38.2059 35.3722 37.7659V35.6383C35.3722 35.1982 35.7301 34.8404 36.17 34.8404C36.6101 34.8404 36.9679 35.1983 36.9679 35.6383V37.7659Z" fill="#616161"/>
<path d="M36.17 24.7341C34.8502 24.7341 33.7764 25.8079 33.7764 27.1277V29.2554C33.7764 30.5752 34.8502 31.649 36.17 31.649C37.4898 31.649 38.5637 30.5752 38.5637 29.2554V27.1277C38.5637 25.8079 37.4898 24.7341 36.17 24.7341ZM36.9679 29.2553C36.9679 29.6953 36.61 30.0531 36.17 30.0531C35.73 30.0531 35.3722 29.6952 35.3722 29.2553V27.1276C35.3722 26.6876 35.7301 26.3298 36.17 26.3298C36.6101 26.3298 36.9679 26.6877 36.9679 27.1276V29.2553Z" fill="#616161"/>
<path d="M31.3831 24.7341C30.9423 24.7341 30.5852 25.0912 30.5852 25.5319V30.8511C30.5852 31.2918 30.9423 31.6489 31.3831 31.6489C31.8238 31.6489 32.1809 31.2918 32.1809 30.8511V25.5319C32.1809 25.0912 31.8238 24.7341 31.3831 24.7341Z" fill="#616161"/>
<path d="M26.5958 24.7341C25.276 24.7341 24.2021 25.8079 24.2021 27.1277V29.2554C24.2021 30.5752 25.276 31.649 26.5958 31.649C27.9156 31.649 28.9895 30.5752 28.9895 29.2554V27.1277C28.9895 25.8079 27.9156 24.7341 26.5958 24.7341ZM27.3937 29.2553C27.3937 29.6953 27.0358 30.0531 26.5959 30.0531C26.1559 30.0531 25.798 29.6952 25.798 29.2553V27.1276C25.798 26.6876 26.156 26.3298 26.5959 26.3298C27.0359 26.3298 27.3937 26.6877 27.3937 27.1276V29.2553Z" fill="#616161"/>
<path d="M21.8086 24.7341C21.3679 24.7341 21.0107 25.0912 21.0107 25.5319V30.8511C21.0107 31.2918 21.3679 31.6489 21.8086 31.6489C22.2493 31.6489 22.6064 31.2918 22.6064 30.8511V25.5319C22.6064 25.0912 22.2493 24.7341 21.8086 24.7341Z" fill="#616161"/>
<path d="M18.6169 24.7341C18.1762 24.7341 17.8191 25.0912 17.8191 25.5319V30.8511C17.8191 31.2918 18.1762 31.6489 18.6169 31.6489C19.0577 31.6489 19.4148 31.2918 19.4148 30.8511V25.5319C19.4149 25.0912 19.0578 24.7341 18.6169 24.7341Z" fill="#616161"/>
<path d="M13.8297 24.7341C12.5099 24.7341 11.436 25.8079 11.436 27.1277V29.2554C11.436 30.5752 12.5099 31.649 13.8297 31.649C15.1495 31.649 16.2233 30.5752 16.2233 29.2554V27.1277C16.2233 25.8079 15.1495 24.7341 13.8297 24.7341ZM14.6275 29.2553C14.6275 29.6953 14.2696 30.0531 13.8297 30.0531C13.3896 30.0531 13.0318 29.6952 13.0318 29.2553V27.1276C13.0318 26.6876 13.3897 26.3298 13.8297 26.3298C14.2697 26.3298 14.6275 26.6877 14.6275 27.1276V29.2553Z" fill="#616161"/>
<path d="M42.0215 6.91486C42.4621 6.91486 42.8193 6.55765 42.8193 6.117C42.8193 5.67636 42.4621 5.31915 42.0215 5.31915C41.5808 5.31915 41.2236 5.67636 41.2236 6.117C41.2236 6.55765 41.5808 6.91486 42.0215 6.91486Z" fill="#616161"/>
<path d="M38.8296 6.91486C39.2702 6.91486 39.6274 6.55765 39.6274 6.117C39.6274 5.67636 39.2702 5.31915 38.8296 5.31915C38.3889 5.31915 38.0317 5.67636 38.0317 6.117C38.0317 6.55765 38.3889 6.91486 38.8296 6.91486Z" fill="#616161"/>
<path d="M45.2129 6.91486C45.6535 6.91486 46.0107 6.55765 46.0107 6.117C46.0107 5.67636 45.6535 5.31915 45.2129 5.31915C44.7723 5.31915 44.415 5.67636 44.415 6.117C44.415 6.55765 44.7723 6.91486 45.2129 6.91486Z" fill="#616161"/>
</svg>
