<svg width="50" height="50" viewBox="0 0 50 50" fill="none" xmlns="http://www.w3.org/2000/svg">
<g clip-path="url(#clip0_140_2878)">
<path d="M18.7498 45.8333H16.0478C14.0024 45.8311 12.0414 45.0176 10.5952 43.5713C9.14887 42.1251 8.33538 40.1641 8.33317 38.1188V31.25C8.33207 30.1453 7.89273 29.0861 7.11156 28.3049C6.3304 27.5238 5.27123 27.0844 4.1665 27.0833V25C5.27123 24.9989 6.3304 24.5596 7.11156 23.7784C7.89273 22.9972 8.33207 21.9381 8.33317 20.8333V13.9646C8.33538 11.9192 9.14887 9.95827 10.5952 8.51199C12.0414 7.0657 14.0024 6.25221 16.0478 6.25H18.7498V8.33333H16.0478C14.5548 8.33499 13.1234 8.92881 12.0677 9.98451C11.012 11.0402 10.4182 12.4716 10.4165 13.9646V20.8333C10.4162 21.865 10.1605 22.8805 9.67234 23.7893C9.18414 24.6981 8.47857 25.4719 7.61859 26.0417C8.47857 26.6115 9.18414 27.3853 9.67234 28.2941C10.1605 29.2029 10.4162 30.2184 10.4165 31.25V38.1188C10.4182 39.6117 11.012 41.0431 12.0677 42.0988C13.1234 43.1545 14.5548 43.7483 16.0478 43.75H18.7498V45.8333ZM41.6665 38.1188V31.25C41.6676 30.1453 42.1069 29.0861 42.8881 28.3049C43.6693 27.5238 44.7284 27.0844 45.8332 27.0833V25C44.7284 24.9989 43.6693 24.5596 42.8881 23.7784C42.1069 22.9972 41.6676 21.9381 41.6665 20.8333V13.9646C41.6643 11.9192 40.8508 9.95827 39.4045 8.51199C37.9582 7.0657 35.9973 6.25221 33.9519 6.25H31.2498V8.33333H33.9519C35.4449 8.33499 36.8763 8.92881 37.932 9.98451C38.9877 11.0402 39.5815 12.4716 39.5832 13.9646V20.8333C39.5835 21.865 39.8391 22.8805 40.3273 23.7893C40.8155 24.6981 41.5211 25.4719 42.3811 26.0417C41.5211 26.6115 40.8155 27.3853 40.3273 28.2941C39.8391 29.2029 39.5835 30.2184 39.5832 31.25V38.1188C39.5815 39.6117 38.9877 41.0431 37.932 42.0988C36.8763 43.1545 35.4449 43.7483 33.9519 43.75H31.2498V45.8333H33.9519C35.9973 45.8311 37.9582 45.0176 39.4045 43.5713C40.8508 42.1251 41.6643 40.1641 41.6665 38.1188Z" fill="#616161"/>
</g>
<defs>
<clipPath id="clip0_140_2878">
<rect width="50" height="50" fill="white"/>
</clipPath>
</defs>
</svg>
