<svg width="67" height="67" viewBox="0 0 67 67" fill="none" xmlns="http://www.w3.org/2000/svg">
<path d="M2.67086 7.33375C2.38166 7.33375 2.14258 7.09964 2.14258 6.81058C2.14258 6.52138 2.37145 6.28727 2.6596 6.28727H2.67086C2.8096 6.28737 2.94263 6.34255 3.04073 6.44067C3.13883 6.53879 3.19396 6.67183 3.19403 6.81058C3.19393 6.9493 3.13878 7.08231 3.04068 7.1804C2.94259 7.27849 2.80958 7.33365 2.67086 7.33375ZM4.76369 7.33375C4.47449 7.33375 4.23541 7.09964 4.23541 6.81058C4.23541 6.52138 4.46428 6.28727 4.75244 6.28727H4.76369C4.90244 6.28737 5.03547 6.34255 5.13356 6.44067C5.23166 6.53879 5.2868 6.67183 5.28687 6.81058C5.28676 6.9493 5.23161 7.08231 5.13352 7.1804C5.03542 7.27849 4.90241 7.33365 4.76369 7.33375ZM6.85652 7.33375C6.56732 7.33375 6.32824 7.09964 6.32824 6.81058C6.32824 6.52138 6.55712 6.28727 6.84527 6.28727H6.85652C6.99527 6.28737 7.1283 6.34255 7.2264 6.44067C7.32449 6.53879 7.37963 6.67183 7.3797 6.81058C7.3796 6.9493 7.32444 7.08231 7.22635 7.1804C7.12826 7.27849 6.99525 7.33365 6.85652 7.33375Z" fill="#424242"/>
<path d="M57.0518 8.38011H0.546369C0.47765 8.38016 0.409595 8.36666 0.346097 8.34039C0.2826 8.31411 0.224905 8.27558 0.176313 8.22699C0.127721 8.1784 0.0891865 8.1207 0.0629127 8.0572C0.036639 7.99371 0.0231419 7.92565 0.0231935 7.85693V6.81058C0.0231935 5.94508 0.727217 5.24092 1.59272 5.24092H56.0055C56.8708 5.24092 57.575 5.94508 57.575 6.81058V7.85693C57.575 7.92565 57.5615 7.99369 57.5352 8.05718C57.509 8.12067 57.4704 8.17836 57.4218 8.22695C57.3733 8.27554 57.3156 8.31407 57.2521 8.34035C57.1886 8.36663 57.1205 8.38014 57.0518 8.38011ZM1.06954 7.33376H56.5285V6.81058C56.5285 6.52648 56.2893 6.28727 56.0053 6.28727H1.59272C1.45403 6.28755 1.3211 6.34278 1.22304 6.44086C1.12498 6.53894 1.06979 6.67189 1.06954 6.81058V7.33376Z" fill="#424242"/>
<path d="M57.0518 26.1689C56.9831 26.1689 56.915 26.1554 56.8515 26.1291C56.7881 26.1029 56.7304 26.0643 56.6818 26.0157C56.6332 25.9672 56.5946 25.9095 56.5684 25.846C56.5421 25.7825 56.5286 25.7144 56.5286 25.6457V7.85693C56.5286 7.56773 56.7626 7.33376 57.0518 7.33376C57.341 7.33376 57.575 7.56773 57.575 7.85693V25.6457C57.575 25.7144 57.5615 25.7824 57.5352 25.8459C57.5089 25.9094 57.4704 25.9671 57.4218 26.0157C57.3732 26.0643 57.3155 26.1028 57.2521 26.1291C57.1886 26.1554 57.1205 26.1689 57.0518 26.1689ZM0.546369 46.0508C0.407635 46.0508 0.274604 45.9956 0.176505 45.8975C0.0784051 45.7994 0.0232627 45.6664 0.0231934 45.5277V7.85693C0.0231934 7.56773 0.25717 7.33376 0.546369 7.33376C0.835568 7.33376 1.06954 7.56773 1.06954 7.85693V45.5277C1.06948 45.6664 1.01433 45.7994 0.916233 45.8975C0.818134 45.9956 0.685102 46.0508 0.546369 46.0508Z" fill="#424242"/>
<path d="M25.6599 46.0509H0.54637C0.407637 46.0508 0.274605 45.9957 0.176506 45.8976C0.0784062 45.7995 0.0232638 45.6664 0.0231944 45.5277C0.0230564 45.459 0.0364946 45.3909 0.0627378 45.3273C0.088981 45.2638 0.127513 45.2061 0.176121 45.1575C0.22473 45.1089 0.28246 45.0703 0.345996 45.0441C0.409533 45.0178 0.477627 45.0044 0.54637 45.0045H25.6599C25.7286 45.0044 25.7967 45.0178 25.8602 45.0441C25.9238 45.0703 25.9815 45.1089 26.0301 45.1575C26.0787 45.2061 26.1172 45.2638 26.1435 45.3273C26.1697 45.3909 26.1832 45.459 26.183 45.5277C26.183 45.6664 26.1278 45.7995 26.0297 45.8976C25.9316 45.9957 25.7986 46.0508 25.6599 46.0509Z" fill="#424242"/>
<path d="M2.63914 46.0508C2.50041 46.0508 2.36738 45.9956 2.26928 45.8975C2.17118 45.7994 2.11604 45.6664 2.11597 45.5277V7.85693C2.11597 7.56773 2.34994 7.33376 2.63914 7.33376C2.92834 7.33376 3.16245 7.56773 3.16245 7.85693V45.5277C3.16235 45.6664 3.10717 45.7994 3.00905 45.8975C2.91093 45.9956 2.77789 46.0508 2.63914 46.0508Z" fill="#424242"/>
<path d="M1.59272 11.5193H0.546371C0.477656 11.5193 0.409609 11.5058 0.346119 11.4795C0.282629 11.4533 0.224941 11.4147 0.176353 11.3661C0.127764 11.3176 0.0892289 11.2599 0.062949 11.1964C0.0366692 11.1329 0.0231603 11.0648 0.0231947 10.9961C0.0231431 10.9274 0.0366393 10.8593 0.0629114 10.7958C0.0891836 10.7323 0.127716 10.6746 0.176306 10.626C0.224896 10.5774 0.28259 10.5389 0.346089 10.5126C0.409588 10.4863 0.477645 10.4728 0.546371 10.4728H1.59272C1.66145 10.4728 1.72951 10.4863 1.793 10.5126C1.8565 10.5389 1.9142 10.5774 1.96279 10.626C2.01138 10.6746 2.04991 10.7323 2.07618 10.7958C2.10245 10.8593 2.11595 10.9274 2.1159 10.9961C2.11595 11.0648 2.10245 11.1329 2.07618 11.1964C2.04991 11.2599 2.01137 11.3176 1.96278 11.3662C1.91419 11.4148 1.85649 11.4533 1.79299 11.4796C1.7295 11.5059 1.66144 11.5193 1.59272 11.5193ZM1.59272 14.6585H0.546371C0.477656 14.6585 0.409609 14.645 0.346119 14.6187C0.282629 14.5925 0.224941 14.5539 0.176353 14.5053C0.127764 14.4567 0.0892289 14.3991 0.062949 14.3356C0.0366692 14.2721 0.0231603 14.204 0.0231947 14.1353C0.0231431 14.0666 0.0366393 13.9985 0.0629114 13.935C0.0891836 13.8715 0.127716 13.8138 0.176306 13.7652C0.224896 13.7166 0.28259 13.6781 0.346089 13.6518C0.409588 13.6255 0.477645 13.612 0.546371 13.612H1.59272C1.66145 13.612 1.72951 13.6255 1.793 13.6518C1.8565 13.6781 1.9142 13.7166 1.96279 13.7652C2.01138 13.8138 2.04991 13.8715 2.07618 13.935C2.10245 13.9985 2.11595 14.0666 2.1159 14.1353C2.11595 14.204 2.10245 14.2721 2.07618 14.3356C2.04991 14.3991 2.01137 14.4568 1.96278 14.5054C1.91419 14.554 1.85649 14.5925 1.79299 14.6188C1.7295 14.645 1.66144 14.6585 1.59272 14.6585ZM1.59272 17.7977H0.546371C0.257171 17.7977 0.0231947 17.5637 0.0231947 17.2745C0.0231947 16.9853 0.257171 16.7513 0.546371 16.7513H1.59272C1.88192 16.7513 2.1159 16.9853 2.1159 17.2745C2.1159 17.5637 1.88192 17.7977 1.59272 17.7977ZM1.59272 20.9369H0.546371C0.257171 20.9369 0.0231947 20.7029 0.0231947 20.4137C0.0231947 20.1245 0.257171 19.8905 0.546371 19.8905H1.59272C1.88192 19.8905 2.1159 20.1245 2.1159 20.4137C2.1159 20.7029 1.88192 20.9369 1.59272 20.9369ZM1.59272 24.0761H0.546371C0.257171 24.0761 0.0231947 23.8421 0.0231947 23.5529C0.0231947 23.2637 0.257171 23.0296 0.546371 23.0296H1.59272C1.88192 23.0296 2.1159 23.2637 2.1159 23.5529C2.1159 23.8421 1.88192 24.0761 1.59272 24.0761ZM1.59272 27.2153H0.546371C0.257171 27.2153 0.0231947 26.9813 0.0231947 26.6921C0.0231947 26.4029 0.257171 26.1688 0.546371 26.1688H1.59272C1.88192 26.1688 2.1159 26.4029 2.1159 26.6921C2.1159 26.9813 1.88192 27.2153 1.59272 27.2153ZM1.59272 30.3544H0.546371C0.257171 30.3544 0.0231947 30.1205 0.0231947 29.8313C0.0231947 29.5421 0.257171 29.3081 0.546371 29.3081H1.59272C1.88192 29.3081 2.1159 29.5421 2.1159 29.8313C2.1159 30.1205 1.88192 30.3544 1.59272 30.3544ZM1.59272 33.4936H0.546371C0.257171 33.4936 0.0231947 33.2597 0.0231947 32.9705C0.0231947 32.6813 0.257171 32.4473 0.546371 32.4473H1.59272C1.88192 32.4473 2.1159 32.6813 2.1159 32.9705C2.1159 33.2597 1.88192 33.4936 1.59272 33.4936ZM1.59272 36.6333H0.546371C0.407637 36.6333 0.274605 36.5781 0.176506 36.48C0.0784065 36.3819 0.023264 36.2489 0.0231947 36.1102C0.0230568 36.0414 0.036494 35.9733 0.0627356 35.9098C0.0889772 35.8462 0.127507 35.7885 0.176114 35.7399C0.224721 35.6913 0.282449 35.6527 0.345987 35.6265C0.409524 35.6002 0.477621 35.5867 0.546371 35.5869H1.59272C1.66147 35.5867 1.72957 35.6002 1.79311 35.6265C1.85664 35.6527 1.91437 35.6913 1.96298 35.7399C2.01159 35.7885 2.05012 35.8462 2.07636 35.9098C2.1026 35.9733 2.11604 36.0414 2.1159 36.1102C2.11583 36.2489 2.06069 36.3819 1.96259 36.48C1.86449 36.5781 1.73146 36.6333 1.59272 36.6333ZM1.59272 39.7727H0.546371C0.407648 39.7726 0.274636 39.7174 0.176544 39.6193C0.0784522 39.5212 0.0232987 39.3882 0.0231947 39.2495C0.0230395 39.1807 0.0364649 39.1126 0.0627004 39.0491C0.0889358 38.9855 0.127465 38.9278 0.176075 38.8792C0.224686 38.8305 0.282421 38.792 0.345966 38.7657C0.409512 38.7395 0.477616 38.726 0.546371 38.7262H1.59272C1.66148 38.726 1.72958 38.7395 1.79313 38.7657C1.85667 38.792 1.91441 38.8305 1.96302 38.8792C2.01163 38.9278 2.05016 38.9855 2.07639 39.0491C2.10263 39.1126 2.11605 39.1807 2.1159 39.2495C2.11579 39.3882 2.06064 39.5212 1.96255 39.6193C1.86446 39.7174 1.73145 39.7726 1.59272 39.7727ZM1.59272 42.9117H0.546371C0.407637 42.9117 0.274605 42.8565 0.176506 42.7584C0.0784065 42.6603 0.023264 42.5273 0.0231947 42.3886C0.0230567 42.3198 0.0364949 42.2517 0.0627381 42.1882C0.0889812 42.1246 0.127513 42.0669 0.176122 42.0183C0.224731 41.9697 0.28246 41.9312 0.345997 41.9049C0.409534 41.8787 0.477627 41.8652 0.546371 41.8654H1.59272C1.66147 41.8652 1.72956 41.8787 1.7931 41.9049C1.85663 41.9312 1.91436 41.9697 1.96297 42.0183C2.01158 42.0669 2.05011 42.1246 2.07635 42.1882C2.1026 42.2517 2.11604 42.3198 2.1159 42.3886C2.11583 42.5273 2.06069 42.6603 1.96259 42.7584C1.86449 42.8565 1.73146 42.9117 1.59272 42.9117ZM9.96393 11.5193H5.77826C5.70955 11.5193 5.6415 11.5058 5.57801 11.4795C5.51452 11.4533 5.45683 11.4147 5.40824 11.3661C5.35965 11.3176 5.32112 11.2599 5.29484 11.1964C5.26856 11.1329 5.25505 11.0648 5.25508 10.9961C5.25503 10.9274 5.26853 10.8593 5.2948 10.7958C5.32107 10.7323 5.35961 10.6746 5.4082 10.626C5.45679 10.5774 5.51448 10.5389 5.57798 10.5126C5.64148 10.4863 5.70953 10.4728 5.77826 10.4728H9.9638C10.0325 10.4728 10.1006 10.4863 10.1641 10.5126C10.2276 10.5389 10.2853 10.5774 10.3339 10.626C10.3825 10.6746 10.421 10.7323 10.4473 10.7958C10.4735 10.8593 10.487 10.9274 10.487 10.9961C10.487 11.0648 10.4736 11.1329 10.4473 11.1964C10.421 11.2599 10.3825 11.3176 10.3339 11.3662C10.2854 11.4148 10.2277 11.4533 10.1642 11.4796C10.1007 11.5059 10.0326 11.5193 9.96393 11.5193ZM28.799 14.6585H14.1495C14.0808 14.6585 14.0127 14.645 13.9492 14.6187C13.8857 14.5925 13.828 14.5539 13.7794 14.5053C13.7309 14.4567 13.6923 14.3991 13.666 14.3356C13.6398 14.2721 13.6263 14.204 13.6263 14.1353C13.6262 14.0666 13.6397 13.9985 13.666 13.935C13.6923 13.8715 13.7308 13.8138 13.7794 13.7652C13.828 13.7166 13.8857 13.6781 13.9492 13.6518C14.0127 13.6255 14.0807 13.612 14.1495 13.612H28.799C28.8678 13.612 28.9358 13.6255 28.9993 13.6518C29.0628 13.6781 29.1205 13.7166 29.1691 13.7652C29.2177 13.8138 29.2562 13.8715 29.2825 13.935C29.3088 13.9985 29.3223 14.0666 29.3222 14.1353C29.3223 14.204 29.3088 14.2721 29.2825 14.3356C29.2562 14.3991 29.2177 14.4568 29.1691 14.5054C29.1205 14.554 29.0628 14.5925 28.9993 14.6188C28.9358 14.645 28.8678 14.6585 28.799 14.6585ZM12.0568 14.6585H6.82461C6.7559 14.6585 6.68785 14.645 6.62436 14.6187C6.56087 14.5925 6.50318 14.5539 6.45459 14.5053C6.40601 14.4567 6.36747 14.3991 6.34119 14.3356C6.31491 14.2721 6.3014 14.204 6.30144 14.1353C6.30138 14.0666 6.31488 13.9985 6.34115 13.935C6.36742 13.8715 6.40596 13.8138 6.45455 13.7652C6.50314 13.7166 6.56083 13.6781 6.62433 13.6518C6.68783 13.6255 6.75589 13.612 6.82461 13.612H12.0566C12.1254 13.612 12.1934 13.6255 12.2569 13.6518C12.3204 13.6781 12.3781 13.7166 12.4267 13.7652C12.4753 13.8138 12.5138 13.8715 12.5401 13.935C12.5664 13.9985 12.5799 14.0666 12.5798 14.1353C12.5799 14.204 12.5664 14.2721 12.5401 14.3356C12.5139 14.3991 12.4754 14.4568 12.4268 14.5054C12.3782 14.554 12.3205 14.5925 12.257 14.6188C12.1935 14.645 12.1255 14.6585 12.0568 14.6585ZM41.3558 17.7977H27.7526C27.4635 17.7977 27.2294 17.5637 27.2294 17.2745C27.2294 16.9853 27.4635 16.7513 27.7526 16.7513H41.3558C41.645 16.7513 41.879 16.9853 41.879 17.2745C41.879 17.5637 41.645 17.7977 41.3558 17.7977ZM47.6343 17.7977H43.4486C43.1596 17.7977 42.9254 17.5637 42.9254 17.2745C42.9254 16.9853 43.1596 16.7513 43.4486 16.7513H47.6343C47.9234 16.7513 48.1575 16.9853 48.1575 17.2745C48.1575 17.5637 47.9234 17.7977 47.6343 17.7977ZM25.6599 17.7977H7.87109C7.58189 17.7977 7.34792 17.5637 7.34792 17.2745C7.34792 16.9853 7.58189 16.7513 7.87109 16.7513H25.6599C25.9491 16.7513 26.183 16.9853 26.183 17.2745C26.183 17.5637 25.9491 17.7977 25.6599 17.7977ZM11.0103 24.0761H7.87109C7.58189 24.0761 7.34792 23.8421 7.34792 23.5529C7.34792 23.2637 7.58189 23.0296 7.87109 23.0296H11.0101C11.2993 23.0296 11.5335 23.2637 11.5335 23.5529C11.5335 23.8421 11.2995 24.0761 11.0103 24.0761ZM28.6355 24.0761H13.1031C12.8139 24.0761 12.5799 23.8421 12.5799 23.5529C12.5799 23.2637 12.8139 23.0296 13.1031 23.0296H28.6355C28.9247 23.0296 29.1586 23.2637 29.1586 23.5529C29.1586 23.8421 28.9247 24.0761 28.6355 24.0761ZM32.9846 20.9369H8.91745C8.62825 20.9369 8.39427 20.7029 8.39427 20.4137C8.39427 20.1245 8.62825 19.8905 8.91745 19.8905H32.9846C33.2738 19.8905 33.5078 20.1245 33.5078 20.4137C33.5078 20.7029 33.2738 20.9369 32.9846 20.9369ZM27.7526 27.2153H22.5207C22.2315 27.2153 21.9975 26.9813 21.9975 26.6921C21.9975 26.4029 22.2315 26.1688 22.5207 26.1688H27.7526C28.0418 26.1688 28.2759 26.4029 28.2759 26.6921C28.2759 26.9813 28.0418 27.2153 27.7526 27.2153ZM24.6135 30.3544H6.82461C6.53541 30.3544 6.30144 30.1205 6.30144 29.8313C6.30144 29.5421 6.53541 29.3081 6.82461 29.3081H24.6134C24.9026 29.3081 25.1366 29.5421 25.1366 29.8313C25.1366 30.1205 24.9027 30.3544 24.6135 30.3544ZM17.2887 36.6333H6.82461C6.68588 36.6333 6.55285 36.5781 6.45475 36.48C6.35665 36.3819 6.3015 36.2489 6.30144 36.1102C6.3013 36.0414 6.31474 35.9733 6.34098 35.9098C6.36722 35.8462 6.40575 35.7885 6.45435 35.7399C6.50296 35.6913 6.56069 35.6527 6.62423 35.6265C6.68777 35.6002 6.75586 35.5867 6.82461 35.5869H17.2887C17.3574 35.5867 17.4255 35.6002 17.489 35.6265C17.5526 35.6527 17.6103 35.6913 17.6589 35.7399C17.7075 35.7885 17.746 35.8462 17.7723 35.9098C17.7985 35.9733 17.812 36.0414 17.8118 36.1102C17.8118 36.2489 17.7566 36.3819 17.6585 36.48C17.5604 36.5781 17.4274 36.6333 17.2887 36.6333ZM15.1958 39.7727H6.82461C6.68589 39.7726 6.55288 39.7174 6.45479 39.6193C6.35669 39.5212 6.30154 39.3882 6.30144 39.2495C6.30128 39.1807 6.31471 39.1126 6.34094 39.0491C6.36718 38.9855 6.40571 38.9278 6.45432 38.8792C6.50293 38.8305 6.56066 38.792 6.62421 38.7657C6.68775 38.7395 6.75586 38.726 6.82461 38.7262H15.1958C15.485 38.7262 15.7191 38.9591 15.7191 39.2495C15.719 39.3882 15.6638 39.5212 15.5657 39.6193C15.4676 39.7174 15.3346 39.7726 15.1958 39.7727ZM24.6135 33.4936H21.4743C21.1851 33.4936 20.9511 33.2597 20.9511 32.9705C20.9511 32.6813 21.1851 32.4473 21.4743 32.4473H24.6135C24.9027 32.4473 25.1367 32.6813 25.1367 32.9705C25.1367 33.2597 24.9027 33.4936 24.6135 33.4936ZM19.3814 33.4936H7.87109C7.58189 33.4936 7.34792 33.2597 7.34792 32.9705C7.34792 32.6813 7.58189 32.4473 7.87109 32.4473H19.3814C19.6706 32.4473 19.9047 32.6813 19.9047 32.9705C19.9047 33.2597 19.6706 33.4936 19.3814 33.4936ZM9.96393 42.9117H5.77826C5.63953 42.9117 5.50649 42.8565 5.4084 42.7584C5.3103 42.6603 5.25515 42.5273 5.25508 42.3886C5.25495 42.3198 5.26838 42.2517 5.29463 42.1882C5.32087 42.1246 5.3594 42.0669 5.40801 42.0183C5.45662 41.9697 5.51435 41.9312 5.57789 41.9049C5.64142 41.8787 5.70952 41.8652 5.77826 41.8654H9.9638C10.0997 41.8697 10.2286 41.9266 10.3232 42.0243C10.4178 42.1219 10.4707 42.2525 10.4708 42.3885C10.4708 42.5244 10.4179 42.6551 10.3233 42.7527C10.2287 42.8504 10.0998 42.9074 9.96393 42.9117ZM20.4278 27.2153H7.87109C7.58189 27.2153 7.34792 26.9813 7.34792 26.6921C7.34792 26.4029 7.58189 26.1688 7.87109 26.1688H20.4278C20.717 26.1688 20.951 26.4029 20.951 26.6921C20.951 26.9813 20.717 27.2153 20.4278 27.2153Z" fill="#424242"/>
<path d="M42.3728 53.3758C38.0401 53.3758 33.9678 51.6897 30.9042 48.6261C24.582 42.3006 24.582 32.0109 30.9042 25.6865C33.9678 22.623 38.04 20.9369 42.3728 20.9369C46.7055 20.9369 50.7777 22.623 53.8413 25.6865C60.1635 32.0109 60.1635 42.3006 53.8413 48.6261C50.7776 51.6897 46.7055 53.3758 42.3728 53.3758ZM42.3728 21.9832C38.32 21.9832 34.5094 23.5611 31.6443 26.4263C25.7297 32.343 25.7297 41.9695 31.6443 47.8861C34.5096 50.7514 38.3202 52.3292 42.3728 52.3292C46.4256 52.3292 50.2361 50.7514 53.1014 47.8861C59.016 41.9695 59.016 32.343 53.1014 26.4263C50.2361 23.5611 46.4255 21.9832 42.3728 21.9832Z" fill="#424242"/>
<path d="M63.7758 61.3012C63.707 61.3013 63.639 61.2878 63.5755 61.2615C63.512 61.2352 63.4543 61.1966 63.4058 61.1479L53.3444 51.0886C53.2958 51.0401 53.2573 50.9824 53.231 50.919C53.2047 50.8555 53.1912 50.7875 53.1912 50.7188C53.1912 50.6501 53.2047 50.582 53.231 50.5186C53.2573 50.4551 53.2958 50.3975 53.3444 50.3489C53.393 50.3003 53.4507 50.2617 53.5141 50.2354C53.5776 50.2091 53.6456 50.1956 53.7143 50.1956C53.783 50.1956 53.851 50.2091 53.9145 50.2354C53.978 50.2617 54.0356 50.3003 54.0842 50.3489L64.1456 60.4082C64.1942 60.4567 64.2327 60.5144 64.259 60.5779C64.2853 60.6413 64.2988 60.7094 64.2988 60.7781C64.2988 60.8468 64.2853 60.9148 64.259 60.9782C64.2327 61.0417 64.1942 61.0994 64.1456 61.1479C64.0971 61.1966 64.0395 61.2352 63.976 61.2615C63.9125 61.2878 63.8445 61.3013 63.7758 61.3012Z" fill="#424242"/>
<path d="M65.9952 59.0816C65.9265 59.0817 65.8585 59.0682 65.795 59.0419C65.7315 59.0156 65.6738 58.9771 65.6253 58.9284L55.5639 48.8691C55.5153 48.8206 55.4768 48.7629 55.4505 48.6994C55.4242 48.636 55.4106 48.5679 55.4106 48.4992C55.4106 48.4305 55.4242 48.3625 55.4505 48.2991C55.4768 48.2356 55.5153 48.1779 55.5639 48.1294C55.6125 48.0808 55.6701 48.0422 55.7336 48.0159C55.7971 47.9896 55.8651 47.9761 55.9338 47.9761C56.0025 47.9761 56.0705 47.9896 56.134 48.0159C56.1974 48.0422 56.2551 48.0808 56.3037 48.1294L66.3651 58.1887C66.4383 58.2618 66.4882 58.355 66.5084 58.4565C66.5287 58.558 66.5183 58.6632 66.4787 58.7588C66.4391 58.8544 66.3721 58.9361 66.286 58.9936C66.1999 59.0511 66.0987 59.0817 65.9952 59.0816Z" fill="#424242"/>
<path d="M64.8857 61.759C64.611 61.7594 64.3389 61.7056 64.085 61.6007C63.8311 61.4958 63.6004 61.342 63.406 61.1479C63.3574 61.0994 63.3188 61.0417 63.2925 60.9782C63.2662 60.9148 63.2527 60.8467 63.2527 60.778C63.2527 60.7093 63.2662 60.6413 63.2925 60.5779C63.3188 60.5144 63.3574 60.4567 63.406 60.4082C63.4545 60.3596 63.5122 60.321 63.5756 60.2947C63.6391 60.2684 63.7071 60.2549 63.7758 60.2549C63.8445 60.2549 63.9126 60.2684 63.976 60.2947C64.0395 60.321 64.0971 60.3596 64.1457 60.4082C64.2429 60.5054 64.3582 60.5824 64.4852 60.635C64.6121 60.6876 64.7482 60.7147 64.8856 60.7147C65.023 60.7147 65.1591 60.6876 65.286 60.635C65.413 60.5824 65.5283 60.5054 65.6255 60.4082C66.0332 59.9994 66.0332 59.3353 65.6255 58.9284C65.5769 58.8799 65.5383 58.8222 65.512 58.7587C65.4857 58.6953 65.4722 58.6272 65.4722 58.5585C65.4722 58.4898 65.4857 58.4218 65.512 58.3584C65.5383 58.2949 65.5769 58.2372 65.6255 58.1887C65.674 58.1401 65.7317 58.1015 65.7952 58.0752C65.8586 58.0489 65.9266 58.0354 65.9953 58.0354C66.064 58.0354 66.1321 58.0489 66.1955 58.0752C66.259 58.1015 66.3167 58.1401 66.3652 58.1887C67.1807 59.0041 67.1807 60.3325 66.3652 61.1479C66.1709 61.342 65.9402 61.4959 65.6863 61.6008C65.4324 61.7056 65.1604 61.7594 64.8857 61.759Z" fill="#424242"/>
<path d="M42.4023 43.958C39.8058 43.958 37.6936 41.3749 37.6936 38.203C37.6936 35.029 39.8059 32.4474 42.4023 32.4474C44.999 32.4474 47.111 35.0291 47.111 38.203C47.1112 41.3749 44.999 43.958 42.4023 43.958ZM42.4023 33.4936C40.3832 33.4936 38.74 35.6053 38.74 38.2028C38.74 40.7984 40.3833 42.9115 42.4023 42.9115C44.4216 42.9115 46.0647 40.7984 46.0647 38.2028C46.0648 35.6053 44.4216 33.4936 42.4023 33.4936Z" fill="#424242"/>
<path d="M46.5041 37.6796H38.3005C38.1618 37.6796 38.0288 37.6244 37.9307 37.5263C37.8326 37.4282 37.7774 37.2952 37.7773 37.1565C37.7772 37.0877 37.7906 37.0196 37.8169 36.9561C37.8431 36.8925 37.8817 36.8348 37.9303 36.7862C37.9789 36.7376 38.0366 36.6991 38.1001 36.6728C38.1637 36.6466 38.2318 36.6331 38.3005 36.6333H46.5041C46.5728 36.6332 46.6409 36.6466 46.7045 36.6729C46.768 36.6991 46.8257 36.7376 46.8743 36.7863C46.9229 36.8349 46.9614 36.8926 46.9877 36.9561C47.0139 37.0196 47.0274 37.0877 47.0273 37.1565C47.0272 37.2952 46.9721 37.4282 46.874 37.5263C46.7759 37.6244 46.6428 37.6796 46.5041 37.6796Z" fill="#424242"/>
<path d="M42.4023 43.958C42.2635 43.958 42.1305 43.9028 42.0324 43.8047C41.9343 43.7066 41.8792 43.5736 41.8791 43.4349V37.1565C41.8791 36.8663 42.1131 36.6333 42.4023 36.6333C42.6915 36.6333 42.9254 36.8663 42.9254 37.1565V43.4349C42.9254 43.5736 42.8702 43.7066 42.7721 43.8047C42.674 43.9028 42.541 43.958 42.4023 43.958ZM43.4486 32.4473C43.3799 32.4473 43.3119 32.4338 43.2484 32.4075C43.1849 32.3812 43.1273 32.3426 43.0788 32.2939C43.0302 32.2453 42.9917 32.1877 42.9654 32.1242C42.9391 32.0607 42.9255 31.9927 42.9255 31.924C42.9255 31.8553 42.9391 31.7873 42.9654 31.7238C42.9917 31.6604 43.0302 31.6027 43.0788 31.5541L45.1715 29.4613C45.2201 29.4127 45.2777 29.3742 45.3412 29.3479C45.4047 29.3216 45.4727 29.308 45.5414 29.308C45.6102 29.308 45.6782 29.3216 45.7417 29.3479C45.8051 29.3742 45.8628 29.4127 45.9114 29.4613C45.96 29.5099 45.9985 29.5676 46.0248 29.631C46.0511 29.6945 46.0647 29.7625 46.0647 29.8312C46.0647 29.9 46.0511 29.968 46.0248 30.0315C45.9985 30.0949 45.96 30.1526 45.9114 30.2012L43.8185 32.2939C43.77 32.3426 43.7124 32.3812 43.6489 32.4075C43.5854 32.4338 43.5173 32.4473 43.4486 32.4473ZM41.3559 32.4473C41.2872 32.4473 41.2191 32.4338 41.1556 32.4075C41.0921 32.3812 41.0345 32.3426 40.986 32.2939L38.8933 30.2012C38.6889 29.9968 38.6889 29.6657 38.8933 29.4613C39.0977 29.2569 39.4287 29.2569 39.633 29.4613L41.7257 31.5541C41.7743 31.6027 41.8129 31.6604 41.8392 31.7238C41.8655 31.7873 41.879 31.8553 41.879 31.924C41.879 31.9927 41.8655 32.0607 41.8392 32.1242C41.8129 32.1877 41.7743 32.2453 41.7257 32.2939C41.6772 32.3426 41.6196 32.3812 41.5561 32.4075C41.4927 32.4339 41.4246 32.4474 41.3559 32.4473ZM48.6808 38.7262H47.6344C47.4956 38.7261 47.3626 38.671 47.2645 38.5729C47.1663 38.4748 47.1112 38.3417 47.1111 38.203C47.111 38.1342 47.1244 38.0661 47.1507 38.0026C47.1769 37.939 47.2154 37.8813 47.2641 37.8327C47.3127 37.7841 47.3704 37.7455 47.434 37.7193C47.4975 37.6931 47.5657 37.6797 47.6344 37.6798H48.6808C48.7495 37.6797 48.8176 37.6931 48.8811 37.7194C48.9446 37.7456 49.0024 37.7842 49.051 37.8328C49.0996 37.8814 49.1381 37.9391 49.1644 38.0026C49.1906 38.0662 49.2041 38.1342 49.2039 38.203C49.2038 38.3417 49.1487 38.4747 49.0506 38.5728C48.9525 38.6709 48.8195 38.7261 48.6808 38.7262ZM47.6374 36.6333C47.6232 36.6333 47.6109 36.6333 47.6017 36.6312C47.3134 36.6128 47.0937 36.3656 47.1121 36.0774C47.1197 35.9519 47.1724 35.8333 47.2605 35.7436C47.3486 35.6538 47.4661 35.5989 47.5915 35.5889C47.6619 35.5441 48.1576 35.1537 48.1576 32.9704C48.1575 32.9017 48.171 32.8337 48.1973 32.7702C48.2236 32.7067 48.2621 32.649 48.3107 32.6004C48.3593 32.5518 48.417 32.5133 48.4805 32.487C48.544 32.4607 48.612 32.4472 48.6808 32.4473C48.7495 32.4472 48.8175 32.4607 48.881 32.487C48.9445 32.5133 49.0022 32.5518 49.0508 32.6004C49.0994 32.649 49.1379 32.7067 49.1642 32.7702C49.1905 32.8337 49.204 32.9017 49.2039 32.9704C49.2039 34.6611 48.9177 35.7852 48.3537 36.3145C48.0522 36.5986 47.7609 36.6333 47.6374 36.6333ZM48.6808 43.956C48.612 43.9561 48.5439 43.9427 48.4804 43.9164C48.4168 43.8902 48.3591 43.8516 48.3105 43.803C48.2619 43.7544 48.2234 43.6967 48.1971 43.6332C48.1709 43.5696 48.1574 43.5015 48.1576 43.4328C48.1576 41.0928 47.5883 40.8128 47.5823 40.8107C47.3012 40.8046 47.0887 40.6124 47.0704 40.3243C47.052 40.0361 47.3134 39.791 47.6018 39.7725C47.6886 39.7602 48.0177 39.7725 48.3539 40.0892C48.918 40.6185 49.2041 41.7426 49.2041 43.4328C49.2042 43.5015 49.1907 43.5696 49.1644 43.6331C49.1382 43.6967 49.0996 43.7544 49.051 43.803C49.0024 43.8516 48.9447 43.8901 48.8811 43.9164C48.8176 43.9426 48.7495 43.9561 48.6808 43.956ZM37.1704 38.7262H36.124C35.9853 38.7261 35.8522 38.671 35.7541 38.5729C35.656 38.4748 35.6008 38.3417 35.6007 38.203C35.6006 38.1342 35.6141 38.0661 35.6403 38.0026C35.6666 37.9391 35.7051 37.8813 35.7537 37.8327C35.8023 37.7841 35.8601 37.7456 35.9236 37.7193C35.9872 37.6931 36.0553 37.6797 36.124 37.6798H37.1704C37.2391 37.6797 37.3072 37.6931 37.3707 37.7194C37.4343 37.7456 37.492 37.7841 37.5406 37.8327C37.5892 37.8813 37.6278 37.9391 37.654 38.0026C37.6802 38.0661 37.6937 38.1342 37.6935 38.203C37.6935 38.3417 37.6383 38.4747 37.5402 38.5728C37.4421 38.6709 37.3091 38.7261 37.1704 38.7262ZM36.124 43.958C35.9853 43.958 35.8522 43.9029 35.7541 43.8048C35.6559 43.7067 35.6008 43.5736 35.6007 43.4349C35.6007 41.7447 35.887 40.6186 36.451 40.0893C36.7871 39.7747 37.1111 39.7603 37.2031 39.7726C37.3417 39.7816 37.471 39.8451 37.5628 39.9494C37.6545 40.0536 37.7012 40.1899 37.6925 40.3285C37.6846 40.4539 37.6318 40.5722 37.5438 40.6619C37.4558 40.7516 37.3385 40.8066 37.2133 40.8169C37.1428 40.8598 36.6472 41.2502 36.6472 43.4349C36.6471 43.5736 36.592 43.7066 36.4939 43.8047C36.3958 43.9028 36.2628 43.958 36.124 43.958ZM37.1672 36.6333C37.0436 36.6333 36.7523 36.5985 36.4509 36.3165C35.8868 35.7872 35.6006 34.6611 35.6006 32.9715C35.6006 32.6823 35.8347 32.4483 36.1239 32.4483C36.4131 32.4483 36.6471 32.6823 36.6471 32.9715C36.6471 35.3111 37.2163 35.591 37.2223 35.593C37.5075 35.5868 37.7158 35.7914 37.7342 36.0815C37.7527 36.3696 37.4911 36.6149 37.2028 36.6333H37.1672Z" fill="#424242"/>
<path d="M29.8454 37.6796C29.7067 37.6796 29.5737 37.6244 29.4756 37.5263C29.3775 37.4282 29.3223 37.2952 29.3223 37.1564C29.3223 29.9436 35.1899 24.076 42.4022 24.076C42.6914 24.076 42.9254 24.31 42.9254 24.5992C42.9254 24.8884 42.6914 25.1224 42.4022 25.1224C35.7672 25.1224 30.3686 30.521 30.3686 37.1564C30.3685 37.2952 30.3134 37.4282 30.2153 37.5263C30.1172 37.6244 29.9842 37.6796 29.8454 37.6796Z" fill="#424242"/>
</svg>
