<svg width="50" height="50" viewBox="0 0 50 50" fill="none" xmlns="http://www.w3.org/2000/svg">
<path d="M50 40.625V2.08334H0V40.625H15.625V45.8333H11.4583V47.9167H38.5417V45.8333H34.375V40.625H50ZM2.08333 4.16667H47.9167V32.2917H2.08333V4.16667ZM32.2917 45.8333H17.7083V40.625H32.2917V45.8333ZM2.08333 38.5417V34.375H47.9167V38.5417H2.08333Z" fill="#616161"/>
<path d="M44.7917 6.25H31.25V8.33333H44.7917V6.25Z" fill="#616161"/>
<path d="M29.1666 6.25H23.9583V8.33333H29.1666V6.25Z" fill="#616161"/>
<path d="M21.8751 6.25H19.7917V8.33333H21.8751V6.25Z" fill="#616161"/>
<path d="M17.7083 6.25H15.625V8.33333H17.7083V6.25Z" fill="#616161"/>
<path d="M44.7917 21.875H32.2917V23.9583H44.7917V21.875Z" fill="#616161"/>
<path d="M30.2083 21.875H28.125V23.9583H30.2083V21.875Z" fill="#616161"/>
<path d="M26.0416 21.875H23.9583V23.9583H26.0416V21.875Z" fill="#616161"/>
<path d="M44.7917 16.6667H34.375V18.75H44.7917V16.6667Z" fill="#616161"/>
<path d="M32.2917 16.6667H19.7917V18.75H32.2917V16.6667Z" fill="#616161"/>
<path d="M27.0834 11.4583H22.9167V13.5417H27.0834V11.4583Z" fill="#616161"/>
<path d="M44.7917 11.4583H29.1667V13.5417H44.7917V11.4583Z" fill="#616161"/>
<path d="M20.8333 11.4583H5.20825V13.5417H20.8333V11.4583Z" fill="#616161"/>
<path d="M44.7917 27.0833H25V29.1667H44.7917V27.0833Z" fill="#616161"/>
<path d="M17.9239 20.6177L16.4509 22.0907L19.3603 25L16.4509 27.9093L17.9239 29.3823L22.3062 25L17.9239 20.6177Z" fill="#616161"/>
<path d="M9.59066 22.0907L8.11768 20.6177L3.73535 25L8.11768 29.3823L9.59066 27.9093L6.68131 25L9.59066 22.0907Z" fill="#616161"/>
<path d="M14.1353 19.4066L9.97217 29.824L11.9068 30.5971L16.0699 20.1797L14.1353 19.4066Z" fill="#616161"/>
</svg>
