<svg width="30" height="30" viewBox="0 0 30 30" fill="none" xmlns="http://www.w3.org/2000/svg">
<path d="M23.2374 7.36245C21.6999 6.64995 20.0624 6.12495 18.3374 5.82495C18.1249 6.19995 17.8749 6.71245 17.7124 7.12495C15.8874 6.84995 14.0749 6.84995 12.2874 7.12495C12.1124 6.71245 11.8624 6.19995 11.6499 5.82495C9.9249 6.12495 8.2874 6.64995 6.7499 7.36245C3.6499 12.0375 2.8124 16.6 3.2249 21.0875C5.2874 22.625 7.2749 23.55 9.2374 24.1625C9.7249 23.5 10.1499 22.7875 10.5249 22.05C9.8124 21.7875 9.1374 21.45 8.4999 21.0625C8.6749 20.9375 8.8374 20.8 8.9999 20.675C12.9124 22.5 17.1499 22.5 21.0124 20.675C21.1749 20.8125 21.3374 20.9375 21.5124 21.0625C20.8749 21.45 20.1874 21.775 19.4874 22.05C19.8624 22.7875 20.2874 23.5 20.7749 24.1625C22.7374 23.55 24.7374 22.625 26.7874 21.0875C27.2749 15.875 25.9499 11.3625 23.2624 7.36245H23.2374ZM11.0499 18.3375C9.8749 18.3375 8.9124 17.25 8.9124 15.9125C8.9124 14.575 9.8499 13.4875 11.0499 13.4875C12.2499 13.4875 13.1999 14.575 13.1874 15.9125C13.1874 17.2375 12.2499 18.3375 11.0499 18.3375ZM18.9374 18.3375C17.7624 18.3375 16.7999 17.25 16.7999 15.9125C16.7999 14.575 17.7374 13.4875 18.9374 13.4875C20.1374 13.4875 21.0874 14.575 21.0749 15.9125C21.0749 17.2375 20.1374 18.3375 18.9374 18.3375Z" fill="#F5F5F5"/>
</svg>
