<svg width="20" height="20" viewBox="0 0 20 20" fill="none" xmlns="http://www.w3.org/2000/svg">
<g clip-path="url(#clip0_25_2928)">
<path fill-rule="evenodd" clip-rule="evenodd" d="M10 0C15.523 0 20 4.58994 20 10.253C20 14.782 17.138 18.624 13.167 19.981C12.66 20.082 12.48 19.7618 12.48 19.4888C12.48 19.1508 12.492 18.0469 12.492 16.6748C12.492 15.7188 12.172 15.0949 11.813 14.7769C14.04 14.5229 16.38 13.6558 16.38 9.7178C16.38 8.5978 15.992 7.68384 15.35 6.96584C15.454 6.70684 15.797 5.66397 15.252 4.25196C15.252 4.25196 14.414 3.97723 12.505 5.30324C11.706 5.07624 10.85 4.96202 10 4.95802C9.15 4.96202 8.295 5.07624 7.497 5.30324C5.586 3.97723 4.746 4.25196 4.746 4.25196C4.203 5.66397 4.546 6.70684 4.649 6.96584C4.01 7.68384 3.619 8.5978 3.619 9.7178C3.619 13.6458 5.954 14.5262 8.175 14.7852C7.889 15.0412 7.63 15.4928 7.54 16.1558C6.97 16.4178 5.522 16.8712 4.63 15.3042C4.63 15.3042 4.101 14.3191 3.097 14.2471C3.097 14.2471 2.122 14.2342 3.029 14.8702C3.029 14.8702 3.684 15.1852 4.139 16.3702C4.139 16.3702 4.726 18.2001 7.508 17.5801C7.513 18.4371 7.522 19.2448 7.522 19.4888C7.522 19.7598 7.338 20.077 6.839 19.982C2.865 18.627 0 14.783 0 10.253C0 4.58994 4.478 0 10 0Z" fill="#FDFFFC"/>
</g>
<defs>
<clipPath id="clip0_25_2928">
<rect width="20" height="20" fill="white"/>
</clipPath>
</defs>
</svg>
