<svg width="50" height="50" viewBox="0 0 50 50" fill="none" xmlns="http://www.w3.org/2000/svg">
<g clip-path="url(#clip0_187_3369)">
<mask id="mask0_187_3369" style="mask-type:luminance" maskUnits="userSpaceOnUse" x="0" y="0" width="50" height="50">
<path d="M50 0H0V50H50V0Z" fill="white"/>
</mask>
<g mask="url(#mask0_187_3369)">
<path d="M25 0C11.193 0 0 11.193 0 25C0 38.807 11.193 50 25 50C38.807 50 50 38.807 50 25C50 11.193 38.807 0 25 0ZM39.0406 24.2188C38.9328 19.8578 37.9359 15.7203 36.218 11.9789C38.2898 11.1805 40.2563 10.1688 42.0891 8.96797C45.8578 12.9836 48.225 18.3242 48.4188 24.2188H39.0406ZM26.0414 48.4109C25.9555 48.4148 25.868 48.4148 25.7812 48.418V39.0898C28.3781 39.1578 30.8961 39.5438 33.2852 40.2383C31.3937 43.3914 28.9289 46.1594 26.0414 48.4109ZM34.8039 40.7352C36.5875 41.3609 38.2898 42.1547 39.9 43.093C36.782 45.6633 32.9867 47.4391 28.8234 48.1227C31.1734 45.9852 33.1906 43.4937 34.8039 40.7352ZM16.7141 40.2383C19.1039 39.543 21.6219 39.1578 24.2188 39.0898V48.4172C24.132 48.4141 24.0445 48.4141 23.9586 48.4102C21.0703 46.1594 18.6062 43.3914 16.7141 40.2383ZM21.1758 48.1219C17.0125 47.4391 13.2172 45.6633 10.0992 43.0922C11.7102 42.1547 13.4117 41.3602 15.1953 40.7352C16.8086 43.4937 18.8266 45.9852 21.1758 48.1219ZM1.58203 24.2188C1.77578 18.3242 4.14219 12.9836 7.91172 8.96797C9.74453 10.168 11.7102 11.1797 13.7828 11.9789C12.0641 15.7203 11.0672 19.8578 10.9594 24.2188H1.58203ZM34.0391 11.0906C31.4258 11.9258 28.6531 12.3953 25.7812 12.4703V1.58203C25.868 1.58516 25.9555 1.58516 26.0414 1.58906C29.3289 4.15156 32.068 7.38516 34.0391 11.0906ZM28.8242 1.87813C33.468 2.64063 37.6508 4.76562 40.95 7.83281C39.25 8.91953 37.4375 9.84062 35.525 10.5664C33.8109 7.28594 31.5383 4.34531 28.8242 1.87813ZM24.2188 1.58203V12.4703C21.3461 12.3953 18.5734 11.9266 15.9609 11.0906C17.932 7.38516 20.6711 4.15156 23.9586 1.58906C24.0445 1.58516 24.132 1.58516 24.2188 1.58203ZM14.4758 10.5664C12.5633 9.84062 10.75 8.91953 9.05078 7.83281C12.35 4.76562 16.532 2.64063 21.1766 1.87813C18.4617 4.34531 16.1891 7.28594 14.4758 10.5664ZM15.2594 12.507C18.0891 13.4359 21.0969 13.9703 24.2188 14.0477V24.2188H12.5242C12.6328 20.0422 13.5961 16.0813 15.2594 12.507ZM24.2188 25.7812V37.5281C21.3406 37.6 18.5586 38.0477 15.9258 38.8477C13.8531 34.9312 12.6469 30.4914 12.5242 25.7812H24.2188ZM25.7812 37.5281V25.7812H37.4758C37.3539 30.4914 36.1469 34.9313 34.0742 38.8484C31.4414 38.0477 28.6594 37.6 25.7812 37.5281ZM25.7812 24.2188V14.0469C28.9031 13.9695 31.9109 13.4359 34.7406 12.5062C36.4039 16.0805 37.3672 20.0422 37.4758 24.218L25.7812 24.2188ZM1.58203 25.7812H10.9594C11.0797 30.6664 12.3188 35.2703 14.4336 39.3508C12.4836 40.0531 10.6281 40.9477 8.87969 42.0039C4.55234 37.9008 1.79219 32.1656 1.58203 25.7812ZM41.1203 42.0047C39.3719 40.9477 37.5164 40.0539 35.5664 39.3516C37.6813 35.2703 38.9203 30.6672 39.0406 25.782H48.418C48.2078 32.1656 45.4477 37.9008 41.1203 42.0047Z" fill="#616161"/>
</g>
</g>
<defs>
<clipPath id="clip0_187_3369">
<rect width="50" height="50" fill="white"/>
</clipPath>
</defs>
</svg>
